<?xml version="1.0" encoding="UTF-8" standalone="no"?><!DOCTYPE svg PUBLIC "-//W3C//DTD SVG 1.1//EN" "http://www.w3.org/Graphics/SVG/1.1/DTD/svg11.dtd"><svg width="100%" height="100%" viewBox="0 0 8000 4500" version="1.1" xmlns="http://www.w3.org/2000/svg" xmlns:xlink="http://www.w3.org/1999/xlink" xml:space="preserve" xmlns:serif="http://www.serif.com/" style="fill-rule:evenodd;clip-rule:evenodd;stroke-miterlimit:10;"><path d="M8176.94,1269.28c0,0 -1387.82,-283.731 -2313.03,-277.563c-925.212,6.168 -2490.67,407.093 -4188.13,320.74c0,0 -1189.64,43.176 -1897.92,-357.749l89.129,2183.5c0,0 1356.98,641.48 3750.19,283.731c2393.22,-357.748 2144.83,-635.312 4533.72,-400.925c2388.9,234.387 26.029,-1751.74 26.029,-1751.74Z" style="fill:#f4f9f2;"/><clipPath id="_clip1"><rect id="tenisSVGillu" x="96.285" y="1238.81" width="3321.73" height="2402.63"/></clipPath><g clip-path="url(#_clip1)"><path d="M3416.84,1446.89c-11.187,95.064 -89.651,170.34 -108.267,264.232c-2.375,12.316 -3.843,24.79 -4.391,37.322c-2.676,53.923 8,108.959 2.496,162.972c-10.255,101.29 -71.817,180.446 -149.98,249.045c-59.126,51.758 -127.755,97.29 -190.881,141.349c-160.717,112.267 -311.449,254.007 -377.462,438.602c-43.998,123.094 -47.367,256.864 -79.666,383.537c-32.3,126.673 -105.862,256.293 -230.189,296.682c-133.439,43.367 -280.472,-28.931 -417.791,-0.36c-147.364,30.675 -251.872,169.949 -397.28,209.286c-184.746,49.984 -368.861,-72.84 -558.509,-98.433c-91.065,-12.3 -183.754,-1.864 -275.3,-9.744c-101.829,-8.884 -200.437,-40.223 -288.712,-91.756c-30.074,-17.654 -60.48,-39.337 -74.464,-71.397c-12.03,-27.698 -10.195,-59.276 -6.496,-89.26c13.834,-111.275 48.84,-232.233 -6.225,-330.035c-50.796,-90.222 -173.89,-154.762 -155.635,-256.623c11.008,-61.291 71.156,-99.576 127.154,-127.034c115.245,-56.629 238.008,-100.959 341.012,-177.438c73.682,-54.795 137.139,-131.243 164.205,-217.226c11.06,-34.362 15.599,-70.492 13.383,-106.523c-3.789,-56.84 -23.458,-120.657 10.827,-166.16c14.857,-19.729 37.623,-31.848 60.509,-41.111c86.313,-34.886 182.19,-36.901 271.932,-61.683c30.764,-8.449 60.325,-20.789 87.967,-36.72c54.735,-31.698 98.794,-78.404 109.44,-139.364c6.225,-35.728 0.692,-74.735 18.526,-106.313c30.074,-53.532 89.531,-75.907 155.935,-83.185c82.192,-9.022 175.272,5.083 237.586,12.03l6.225,0.661c80.028,8.331 159.394,-9.383 237.376,-36.089c84.208,-28.6 166.521,-67.516 246.609,-95.185c7.519,-2.606 15.017,-5.102 22.496,-7.488c58.462,-18.63 118.32,-32.559 179.001,-41.653c85.579,-12.881 172.322,-16.23 258.639,-9.985c43.776,3.155 87.335,8.818 130.462,16.962c12.671,2.406 25.322,4.983 37.953,7.729c73.442,15.729 146.492,34.947 221.407,36.089l16.18,0c89.35,-1.533 180.716,-24.239 265.495,3.188c38.706,12.541 75.517,37.202 91.035,74.615c8.631,20.841 10.015,44.088 7.398,66.464Z" style="fill:#4fb35b;fill-rule:nonzero;"/><path d="M3304.3,1748.41l-77.2,0c-2.35,-40.719 -28.848,-76.303 -67.186,-90.223c23.018,-12.673 37.367,-36.952 37.367,-63.229c0,-39.595 -32.582,-72.178 -72.178,-72.178c-39.596,0 -72.178,32.583 -72.178,72.178c0,26.277 14.349,50.556 37.367,63.229c-38.338,13.92 -64.836,49.504 -67.186,90.223l-0.661,0c-3.462,-39.563 -29.671,-73.677 -67.006,-87.215c23.02,-12.673 37.37,-36.953 37.37,-63.231c0,-39.596 -32.582,-72.178 -72.178,-72.178c-34.638,0 -64.634,24.935 -70.963,58.99c-8.844,-7.218 -18.838,-12.901 -29.563,-16.812c23.019,-12.672 37.368,-36.952 37.368,-63.228c0,-39.596 -32.583,-72.179 -72.179,-72.179c-39.595,0 -72.178,32.583 -72.178,72.179c0,26.276 14.349,50.556 37.367,63.228c-40.408,14.638 -67.467,53.26 -67.426,96.238l0,84.208l-33.082,0l0,-66.163c0.042,-42.979 -27.018,-81.6 -67.426,-96.238c23.018,-12.673 37.367,-36.952 37.367,-63.229c0,-39.596 -32.582,-72.178 -72.178,-72.178c-39.596,0 -72.178,32.582 -72.178,72.178c0,26.277 14.349,50.556 37.367,63.229c-26.409,9.619 -47.735,29.683 -58.945,55.457c-12.089,-17.189 -29.175,-30.253 -48.931,-37.412c23.018,-12.673 37.367,-36.953 37.367,-63.229c0,-39.596 -32.582,-72.178 -72.178,-72.178c-39.596,0 -72.178,32.582 -72.178,72.178c0,26.276 14.349,50.556 37.367,63.229c-21.795,7.929 -40.27,23.021 -52.389,42.795l0,-12.721c0.041,-42.978 -27.018,-81.6 -67.427,-96.238c23.019,-12.673 37.367,-36.952 37.367,-63.229c0,-39.595 -32.582,-72.178 -72.178,-72.178c-39.596,0 -72.178,32.583 -72.178,72.178c0,26.277 14.349,50.556 37.367,63.229c-40.408,14.638 -67.468,53.26 -67.426,96.238l0,114.282l-36.089,0c-11.353,-25.149 -32.392,-44.679 -58.314,-54.134c23.018,-12.673 37.367,-36.952 37.367,-63.229c0,-39.595 -32.582,-72.178 -72.178,-72.178c-39.596,0 -72.178,32.583 -72.178,72.178c0,26.277 14.349,50.556 37.367,63.229c-7.131,2.591 -13.95,5.97 -20.33,10.075c-5.17,-37.609 -30.876,-69.364 -66.585,-82.253c23.019,-12.673 37.368,-36.952 37.368,-63.229c0,-39.596 -32.583,-72.178 -72.178,-72.178c-39.596,0 -72.179,32.582 -72.179,72.178c0,26.277 14.349,50.556 37.368,63.229c-30.527,11.15 -53.997,36.184 -63.156,67.366c-11.286,-12.734 -25.573,-22.452 -41.563,-28.269c23.019,-12.673 37.367,-36.953 37.367,-63.229c0,-39.596 -32.582,-72.178 -72.178,-72.178c-39.596,0 -72.178,32.582 -72.178,72.178c0,26.276 14.349,50.556 37.367,63.229c-11.033,4.026 -21.289,9.927 -30.315,17.443c-11.103,-26.305 -32.702,-46.814 -59.546,-56.54c23.018,-12.673 37.367,-36.952 37.367,-63.229c0,-39.596 -32.583,-72.178 -72.178,-72.178c-39.596,0 -72.179,32.582 -72.179,72.178c0,26.277 14.349,50.556 37.368,63.229c-40.409,14.638 -67.468,53.259 -67.427,96.238l0,30.074l-181.648,0c-27.651,15.868 -57.211,28.148 -87.967,36.54c-89.742,24.781 -185.618,26.796 -271.931,61.682c-22.887,9.263 -45.653,21.383 -60.51,41.112c-34.284,45.502 -14.616,109.32 -10.827,166.16c2.207,36.032 -2.343,72.162 -13.413,106.523l2426.36,0c78.193,-68.449 139.725,-147.755 149.981,-249.045c5.503,-53.983 -5.173,-109.019 -2.497,-162.972Z" style="fill-opacity:0.2;fill-rule:nonzero;"/><path d="M2418.8,2798.22c0,0 1.052,38.044 -32.781,45.442c-33.834,7.399 13.744,29.593 32.781,24.3c19.037,-5.293 97.26,-73.982 97.26,-73.982c0,0 -27.488,-42.285 -45.442,-42.285c-0.121,0.03 -32.872,54.976 -51.818,46.525Z" style="fill-opacity:0.05;fill-rule:nonzero;"/><path d="M2265.42,2776.02c0,0 2.105,34.886 -49.683,54.976c0,0 -53.923,5.293 -16.901,31.698c37.021,26.405 149.048,-7.398 149.048,-7.398c0,0 -2.106,-33.834 -14.797,-61.321c0,0.03 -61.291,-4.211 -67.667,-17.955Z" style="fill-opacity:0.05;fill-rule:nonzero;"/><path d="M2669.59,2045.79c-16.331,-19.278 -51.126,52.509 -51.126,52.509l-126.703,29.052c-8.126,-2.496 -15.316,-7.38 -20.631,-14.014c21.625,0.808 42.002,-10.442 52.84,-29.172l-32.66,-1.835c-3.309,0.026 -6.593,-0.566 -9.684,-1.744c-6.256,-2.857 -9.022,-9.804 -12.391,-15.789c-9.026,-16.401 -23.769,-28.927 -41.412,-35.187c-11.699,-4.15 -24.751,-5.594 -34.796,-12.812c-7.248,-5.203 -12.18,-12.871 -18.044,-19.578c-27.819,-32.119 -73.893,-41.021 -116.418,-46.555c-7.518,-0.992 -16.09,-1.624 -21.743,3.368c-3.88,3.399 -5.414,8.722 -8.782,12.632c-5.744,6.706 -15.458,8.059 -24.21,9.714c-11.018,1.699 -21.554,5.706 -30.916,11.759c-9.348,6.137 -15.627,16 -17.233,27.066c-1.684,16.692 10.496,32.661 8.241,49.292c-0.692,5.113 -2.737,9.985 -3.008,15.037c0.021,4.861 0.792,9.69 2.286,14.315c3.669,14.105 6.496,28.782 4,43.127c-2.496,14.345 -11.278,28.33 -25.022,33.653c17.65,3.897 36.125,1.346 52.058,-7.188c15.459,-8.842 26.827,-25.172 27.368,-42.765l0,-1.263l1.834,0.721c0.271,0.993 0.542,2.045 0.782,3.158l2.737,0.782c1.038,6.283 1.038,12.694 0,18.977l-19.037,15.217c0,0 0,1.113 0.241,3.008l-0.241,0.18c0,0 0,0.903 0.211,2.497l-37.232,23.217c-24.076,18.5 -41.922,43.935 -51.126,72.87l-33.774,52.569c0,0 -21.774,20.361 -33.743,23.579l-101.26,87.877c0,0 -35.067,19.097 -34.916,38.164l0,2.315c0,0.361 0.08,0.722 0.24,1.083c0,0.361 0.211,0.692 0.331,1.053l0,0.18c0,0.331 0.241,0.662 0.391,0.993l0,0.21l0.481,0.963l0,0.24l0.542,0.902l0.18,0.271l0.602,0.872l0.24,0.301l0.692,0.842l0.301,0.331l0.752,0.782l0.36,0.361l0.812,0.751l0.421,0.391l0.903,0.752l0.481,0.391l0.992,0.722l0.512,0.391l1.142,0.782l0.482,0.331l1.804,1.082c39.097,22.496 48.991,-35.367 48.991,-35.367l117.59,-77.17c0,0 96.899,-87.877 96.899,-107.155l21.052,9.022l-0.361,3.79l0,3.218c0,0 -1.082,45.111 55.518,56.81c0,0 51.757,51.938 53.321,68.449l0,0.962c0,0.331 0,0.151 0,0.241c-0.902,12.631 11.278,37.382 15.037,44.931l-20.601,17.232l0.211,3.008l-0.211,0.18l0.782,10.707c-23.307,25.112 -57.141,62.374 -60.659,70.734c-5.444,12.872 -5.444,40.721 7.608,69.652l14.165,127.515l0,37.142l-6.526,-3.008l0,8.421c-3.15,-1.215 -5.821,-3.422 -7.609,-6.286c-1.787,-2.864 0,0.391 0,1.083c-0.18,6.225 -3.518,36.39 -51.126,54.585c0,0 -31.578,3.007 -30.766,16.059c-0.33,4.391 3.158,10.015 13.323,17.173c38.104,26.796 153.379,-7.489 153.379,-7.489l0,-1.052c0,-0.692 -2.166,-34.285 -15.248,-62.164c0,0 -3.007,-0.21 -7.609,-0.661l0,-7.91l-4.751,-0.812c-0.141,-15.022 1.342,-30.016 4.421,-44.72c7.23,-34.082 9.329,-69.054 6.225,-103.756c5.388,6.765 11.432,12.981 18.044,18.555l68.72,108.989l8.12,16.692c-3.007,2.165 -6.015,4.06 -8.481,5.594l13.804,12.781c-3.086,1.244 -6.537,1.244 -9.623,0c-3.087,-1.244 1.082,38.585 -33.744,46.074c-13.894,3.007 -14.435,8.36 -8.872,13.413c7.399,8.03 31.368,15.669 43.698,12.3c19.609,-5.353 100.177,-75.005 100.177,-75.005c-7.14,-10.599 -15.244,-20.515 -24.209,-29.623c-7.88,-7.879 -16.511,-14.285 -23.699,-14.285c0,0 -1.654,2.736 -4.451,6.917l-8.601,-7.97l-0.872,0.812c-0.722,-2.376 -1.384,-4.782 -1.955,-7.158c0,0 -16.691,-76.478 -67.817,-134.401c0,0 -10.075,-8.331 5.503,-35.849c0,0 25.202,-29.894 47.187,-62.314c31.969,6.226 64.87,3.669 89.831,-19.367l-0.33,-1.985l1.413,-1.233l-10.887,-67.517c0,0 4.902,-63.757 -74.584,-115.214c0,0 -43.006,-53.051 -58.254,-120.568l-0.872,0l0.872,-11.699c9.805,7.489 114.282,-6.436 114.282,-6.436l138.342,-57.863c7.849,-4.3 29.713,-34.104 29.623,-55.697c0.416,-5.407 -1.216,-10.777 -4.571,-15.037Z" style="fill:url(#_Linear2);fill-rule:nonzero;"/><path d="M2465.98,2115.53c7.216,9.173 18.007,14.853 29.653,15.609c-8.839,8.204 -19.157,14.654 -30.405,19.006c-32.54,12.782 -71.937,9.023 -99.966,-12.27c-6.587,-5.022 -12.902,-11.007 -21.052,-12.962c-6.978,-1.714 -14.316,0 -21.534,-0.391c-18.46,-1.087 -34.216,-14.038 -38.855,-31.939c-2.076,-8.811 -1.234,-18.044 -2.737,-27.066c-0.247,-1.531 -0.578,-3.047 -0.993,-4.542c-4.21,-15.037 -23.879,-31.217 -40.45,-26.826c-15.638,4.12 -23.668,28.721 -23.337,42.796c0.331,15.488 7.819,30.285 7.338,45.773c-0.541,17.353 -11.579,33.472 -26.586,42.104c-15.402,8.366 -33.329,10.868 -50.434,7.037c13.353,-5.263 21.864,-19.067 24.3,-33.082c2.436,-14.014 -0.331,-28.63 -3.88,-42.525c-1.454,-4.571 -2.205,-9.337 -2.225,-14.134c0.27,-5.083 2.255,-9.895 3.007,-15.038c2.196,-16.39 -9.624,-32.149 -8,-48.6c1.529,-10.842 7.617,-20.533 16.722,-26.615c9.081,-5.972 19.336,-9.93 30.074,-11.609c8.481,-1.624 18.045,-3.007 23.518,-9.594c3.278,-3.849 4.752,-9.022 8.511,-12.48c5.474,-4.902 13.804,-4.271 21.052,-3.309c41.292,5.474 85.982,14.226 113.019,45.924c5.654,6.616 10.436,14.195 17.473,19.307c9.744,7.128 22.405,8.542 33.773,12.632c17.198,6.273 31.496,18.665 40.15,34.796c3.007,6.014 6.014,12.751 12.029,15.578c3,1.171 6.194,1.763 9.413,1.744l31.699,1.805c-10.343,18.418 -30.165,29.579 -51.277,28.871Z" style="fill:#f55f44;fill-rule:nonzero;"/><path d="M2306.14,2115.92c0,0 15.337,1.594 45.983,-5.804c30.646,-7.399 61.321,15.849 61.321,15.849l64.48,5.293l131.063,-30.646c0,0 33.834,-70.825 49.683,-51.788c15.849,19.037 -14.797,63.427 -24.3,68.72l-134.372,57.021c0,0 -101.47,13.744 -110.974,6.345l-2.105,28.541l-50.735,-24.3l-22.105,-51.788l-7.939,-17.443Z" style="fill:#fdb797;fill-rule:nonzero;"/><path d="M2634.34,2116.43l-134.252,57.141c0,0 -101.47,13.744 -110.974,6.346l-2.105,28.54l-50.735,-24.3l-22.195,-51.787l-6.947,-15.248l-0.992,0l7.939,17.443l22.195,51.788l50.735,24.3l2.105,-28.541c9.504,7.399 110.974,-6.345 110.974,-6.345l134.252,-57.141c7.759,-4.301 29.503,-34.556 28.751,-55.908c-0.692,21.112 -21.233,49.592 -28.751,53.712Z" style="fill-opacity:0.05;fill-rule:nonzero;"/><path d="M2217.87,2160.82l-43.337,27.488c-23.484,18.345 -40.82,43.426 -49.683,71.877l-32.781,51.788c0,0 -21.052,20.089 -32.781,23.247l-98.312,86.674c0,0 -59.186,32.781 -21.052,54.976c38.134,22.195 47.577,-34.886 47.577,-34.886l114.282,-76.118c0,0 94.072,-86.674 94.072,-105.711l33.834,14.797l-11.819,-114.132Z" style="fill:#fdb797;fill-rule:nonzero;"/><path d="M2195.68,2258.08c0,19.037 -94.072,105.711 -94.072,105.711l-114.282,76.118c0,0 -9.504,57.141 -47.578,34.886c-8.721,-5.083 -12.33,-10.737 -12.721,-16.391c-0.421,6.376 3.007,12.782 12.721,18.526c38.044,22.195 47.578,-34.886 47.578,-34.886l114.282,-76.118c0,0 94.072,-86.674 94.072,-105.711l33.833,14.797l-0.21,-2.226l-33.623,-14.706Z" style="fill-opacity:0.05;fill-rule:nonzero;"/><path d="M2344.21,2478.71c0,0 -33.082,104.869 -32.27,118.583c0.812,13.714 12.571,38.495 36.36,58.765l66.734,107.516l20.541,42.885l40.39,-11.127c0,0 -15.037,-26.736 -20.872,-50.946c0,0 -16.21,-75.456 -65.832,-132.567c0,0 -9.774,-8.21 5.323,-35.367c0,0 74.343,-89.501 76.84,-125.861l-127.214,28.119Z" style="fill:#fdb797;fill-rule:nonzero;"/><path d="M2344.21,2478.71c0,0 -33.082,104.869 -32.27,118.583c0.812,13.714 12.571,38.495 36.36,58.765l66.734,107.516l20.541,42.885l40.39,-11.127c0,0 -15.037,-26.736 -20.872,-50.946c0,0 -16.21,-75.456 -65.832,-132.567c0,0 -9.774,-8.21 5.323,-35.367c0,0 74.343,-89.501 76.84,-125.861l-127.214,28.119Z" style="fill-opacity:0.05;fill-rule:nonzero;"/><path d="M2339.43,2452.57c0,0 -75.186,80.328 -80.328,93.02c-5.143,12.691 -5.294,40.179 7.398,68.719l13.744,125.801l0,47.577l41.231,7.308c0,0 -2.105,-30.645 3.158,-54.976c0,0 18.045,-75.185 -2.105,-147.995c0,0 -5.293,-11.639 20.09,-29.593c0,0 105.711,-48.63 123.665,-80.328l-126.853,-29.533Z" style="fill-opacity:0.1;fill-rule:nonzero;"/><path d="M2338.38,2452.57c0,0 -75.185,80.328 -80.328,93.02c-5.143,12.691 -5.293,40.179 7.398,68.719l13.744,125.801l0,47.577l41.232,7.308c0,0 -2.105,-30.645 3.158,-54.976c0,0 18.044,-75.185 -2.106,-147.995c0,0 -5.293,-11.639 20.09,-29.593c0,0 105.711,-48.63 123.665,-80.328l-126.853,-29.533Z" style="fill:#fdb797;fill-rule:nonzero;"/><path d="M2338.92,2452.57l-0.572,0.601l124.237,29.052c-18.045,31.698 -123.665,80.328 -123.665,80.328c-25.383,18.045 -20.09,29.593 -20.09,29.593c20.09,72.93 2.105,147.996 2.105,147.996c-4.872,22.405 -3.458,50.133 -3.218,54.404l3.218,0.571c0,0 -2.105,-30.645 3.158,-54.975c0,0 18.044,-75.186 -2.105,-147.996c0,0 -5.293,-11.638 20.089,-29.593c0,0 105.711,-48.63 123.666,-80.328l-126.823,-29.653Z" style="fill-opacity:0.05;fill-rule:nonzero;"/><path d="M2223.32,2109.03c0,0 14.797,23.247 0,53.923l14.797,76.118l61.321,-8.451l29.593,-33.833l-23.398,-81.472c0,0 -19.037,7.399 -21.052,-44.389l-61.261,38.104Z" style="fill:#fdb797;fill-rule:nonzero;"/><path d="M2210.47,2162.96c0,0 4.241,56.028 9.504,68.72l-4.241,44.389c0,0 -1.052,44.39 53.924,56.029c0,0 52.84,53.923 51.787,68.719c-1.052,14.797 15.85,46.495 15.85,46.495l-21.052,18.044l1.052,14.797l14.797,-14.797c0,0 127.905,94.073 195.482,30.646l-10.556,-66.584c0,0 9.022,-56.54 -68.178,-107.275c0,0 -45.984,-58.675 -60.78,-125.259c0,0 -42.285,-4.241 -52.841,-20.09l-21.052,-63.426l-17.443,3.699l16.391,70.283c0,0 -19.037,63.427 -71.878,36.089l-12.029,-75.185l-18.737,14.706Z" style="fill-opacity:0.1;fill-rule:nonzero;"/><path d="M2210.47,2159.77c0,0 4.241,56.028 9.504,68.72l-4.241,44.389c0,0 -1.052,44.39 53.924,56.029c0,0 52.84,53.923 51.787,68.719c-1.052,14.797 15.85,46.495 15.85,46.495l-21.052,18.045l1.052,14.796l14.797,-14.796c0,0 127.905,94.072 195.482,30.645l-10.556,-66.584c0,0 4.752,-62.885 -72.419,-113.621c0,0 -41.743,-52.329 -56.539,-118.913c0,0 -42.285,-4.241 -52.841,-20.09l-21.052,-63.426l-17.443,3.699l16.391,70.283c0,0 -19.037,63.427 -71.878,36.089l-12.029,-75.185l-18.737,14.706Z" style="fill:#252a62;fill-rule:nonzero;"/><rect x="1649.11" y="2425.63" width="169.408" height="1.053" style="fill:#b4abab;"/><rect x="1653.35" y="2418.23" width="160.957" height="1.053" style="fill:#b4abab;"/><rect x="1656.51" y="2410.83" width="147.213" height="1.053" style="fill:#b4abab;"/><rect x="1661.8" y="2403.43" width="130.282" height="1.053" style="fill:#b4abab;"/><rect x="1669.2" y="2396.03" width="111.275" height="1.053" style="fill:#b4abab;"/><rect x="1678.7" y="2388.64" width="89.08" height="1.053" style="fill:#b4abab;"/><rect x="1693.5" y="2381.24" width="55.246" height="1.053" style="fill:#b4abab;"/><rect x="1645.92" y="2434.08" width="178.912" height="1.053" style="fill:#b4abab;"/><rect x="1645.92" y="2442.53" width="182.099" height="1.053" style="fill:#b4abab;"/><rect x="1642.76" y="2450.98" width="187.362" height="1.053" style="fill:#b4abab;"/><rect x="1642.76" y="2459.43" width="189.829" height="1.053" style="fill:#b4abab;"/><rect x="1642.76" y="2467.91" width="188.776" height="1.053" style="fill:#b4abab;"/><rect x="1644.87" y="2476.36" width="183.483" height="1.053" style="fill:#b4abab;"/><rect x="1649.11" y="2484.81" width="173.949" height="1.053" style="fill:#b4abab;"/><rect x="1649.11" y="2493.26" width="166.551" height="1.053" style="fill:#b4abab;"/><rect x="1656.51" y="2501.71" width="149.649" height="1.053" style="fill:#b4abab;"/><rect x="1663.9" y="2510.16" width="130.612" height="1.053" style="fill:#b4abab;"/><rect x="1672.36" y="2518.65" width="109.5" height="1.053" style="fill:#b4abab;"/><rect x="1689.29" y="2527.1" width="77.772" height="1.053" style="fill:#b4abab;"/><rect x="1664.87" y="2400.42" width="1.053" height="112.147" style="fill:#b4abab;"/><rect x="1658.52" y="2408.88" width="1.053" height="96.298" style="fill:#b4abab;"/><rect x="1652.17" y="2418.38" width="1.053" height="78.343" style="fill:#b4abab;"/><rect x="1645.83" y="2433.18" width="1.053" height="49.803" style="fill:#b4abab;"/><rect x="1673.32" y="2393.03" width="1.053" height="126.943" style="fill:#b4abab;"/><rect x="1681.77" y="2387.73" width="1.053" height="136.477" style="fill:#b4abab;"/><rect x="1690.22" y="2383.49" width="1.053" height="143.875" style="fill:#b4abab;"/><rect x="1698.7" y="2380.34" width="1.053" height="150.221" style="fill:#b4abab;"/><rect x="1707.15" y="2377.18" width="1.053" height="156.566" style="fill:#b4abab;"/><rect x="1715.6" y="2377.18" width="1.053" height="156.566" style="fill:#b4abab;"/><rect x="1724.05" y="2377.18" width="1.053" height="156.566" style="fill:#b4abab;"/><rect x="1732.5" y="2377.18" width="1.053" height="156.566" style="fill:#b4abab;"/><rect x="1740.99" y="2380.34" width="1.053" height="153.379" style="fill:#b4abab;"/><rect x="1749.43" y="2382.44" width="1.053" height="150.221" style="fill:#b4abab;"/><rect x="1757.89" y="2384.58" width="1.053" height="145.98" style="fill:#b4abab;"/><rect x="1766.34" y="2388.78" width="1.053" height="137.529" style="fill:#b4abab;"/><rect x="1774.79" y="2393.03" width="1.053" height="130.131" style="fill:#b4abab;"/><rect x="1783.24" y="2400.42" width="1.053" height="118.492" style="fill:#b4abab;"/><rect x="1791.72" y="2403.58" width="1.053" height="108.989" style="fill:#b4abab;"/><rect x="1800.17" y="2409.93" width="1.053" height="97.35" style="fill:#b4abab;"/><rect x="1808.62" y="2417.33" width="1.053" height="83.606" style="fill:#b4abab;"/><rect x="1817.07" y="2423.67" width="1.053" height="67.757" style="fill:#b4abab;"/><rect x="1825.52" y="2437.42" width="1.053" height="44.51" style="fill:#b4abab;"/><path d="M1726.01,2536.9c-9.417,0.055 -18.794,-1.231 -27.849,-3.819c-22.435,-6.526 -39.367,-19.879 -48.961,-38.646c-8.583,-17.443 -10.714,-37.375 -6.015,-56.239c8.481,-36.089 41.172,-70.824 92.93,-61.531l1.744,0.33c18.092,3.486 35.229,10.808 50.254,21.473c85.892,60.45 105.26,52.36 105.26,52.269l3.188,-1.834l0,13.413l-2.316,-0.241c-28.21,-3.007 -72.178,29.293 -96.057,48.721c-17.796,14.769 -39.693,23.744 -62.735,25.713c-3.208,0.261 -6.356,0.391 -9.443,0.391Zm-6.466,-157.529c-39.939,0 -65.201,29.353 -72.329,59.788c-7.879,33.653 5.053,76.148 52.119,89.832c11.61,3.259 23.719,4.37 35.728,3.278c22.183,-1.908 43.26,-10.557 60.389,-24.782c23.638,-19.337 67.156,-51.126 96.839,-49.802l0,-2.527c-8.33,0.963 -34.766,-2.706 -106.703,-53.351c-14.538,-10.323 -31.122,-17.41 -48.63,-20.782l-1.715,-0.33c-5.184,-0.894 -10.437,-1.327 -15.698,-1.294l0,-0.03Z" style="fill:#535461;fill-rule:nonzero;"/><path d="M1888.08,2445.18l90.854,0c5.791,0 10.556,4.765 10.556,10.556c0,5.791 -4.765,10.556 -10.556,10.556l-90.854,0l0,-21.112Z" style="fill:#535461;fill-rule:nonzero;"/><rect x="1888.08" y="2445.18" width="12.691" height="21.142" style="fill:#f0e4e4;"/><path d="M1805.28,2505.02l-2.466,-3.428c18.045,-12.962 27.067,-27.067 27.067,-42.104c0,-25.653 -26.826,-45.593 -27.067,-45.773l2.496,-3.428c1.173,0.872 28.902,21.352 28.842,49.201c0,16.451 -9.684,31.758 -28.872,45.532Z" style="fill:#535461;fill-rule:nonzero;"/><path d="M2288.88,2107.8c-3.158,-6.556 -5.804,-17.293 -6.496,-34.706l-61.321,38.044c2.499,4.4 4.276,9.172 5.263,14.135c22.427,7.145 47.075,0.26 62.554,-17.473Z" style="fill-opacity:0.1;fill-rule:nonzero;"/><circle cx="2246.41" cy="2066.75" r="59.186" style="fill:#fdb797;"/><path d="M2243.62,2052.16c6.015,2.406 10.015,8.059 15.729,10.977c8.21,4.18 18.045,2.015 27.247,3.729c10.316,1.955 19.759,9.022 30.075,8.06c12.39,-1.083 21.443,-14.075 21.052,-26.496c-0.391,-12.42 -8.572,-23.548 -18.677,-30.766c-10.104,-7.217 -22.134,-11.187 -33.953,-15.037c-15.037,-4.962 -31.278,-9.954 -46.826,-6.375c-14.496,3.338 -53.532,22.525 -51.517,40.69c3.278,29.202 41.773,9.203 56.87,15.218Z" style="fill-opacity:0.1;fill-rule:nonzero;"/><path d="M2243.62,2050.09c6.015,2.406 10.015,8.06 15.729,10.978c8.21,4.18 18.045,2.015 27.247,3.729c10.316,1.955 19.759,9.022 30.075,8.06c12.39,-1.083 21.443,-14.075 21.052,-26.496c-0.391,-12.42 -8.572,-23.548 -18.677,-30.766c-10.104,-7.218 -22.134,-11.187 -33.953,-15.037c-15.037,-4.962 -31.278,-9.954 -46.826,-6.376c-14.496,3.339 -53.532,22.526 -51.517,40.691c3.278,29.172 41.773,9.142 56.87,15.217Z" style="fill:#f55f44;fill-rule:nonzero;"/><path d="M2331.58,2401.3c0,0 3.158,26.436 11.639,34.886" style="fill-opacity:0.1;fill-rule:nonzero;"/><path d="M2439.34,2315.68c1.044,8.129 -0.832,16.371 -5.293,23.247" style="fill-opacity:0.1;fill-rule:nonzero;"/><path d="M2388.72,2248.04c0,0 -9.503,19.037 -34.886,31.698" style="fill-opacity:0.1;fill-rule:nonzero;"/><g opacity="0.05"><path d="M2234.8,2223.2c18.495,9.624 32.841,8.09 43.697,2.075c-9.744,3.007 -21.713,2.346 -36.299,-5.233l-12.03,-75.186l-7.007,5.684l11.639,72.66Z" style="fill-rule:nonzero;"/><path d="M2307.73,2113.28l21.052,63.427c10.556,15.849 52.84,20.09 52.84,20.09c14.796,66.584 56.54,118.913 56.54,118.913c77.17,50.735 72.418,113.621 72.418,113.621l10.556,66.584c-5.689,5.342 -12.147,9.802 -19.157,13.233c9.868,-3.627 18.902,-9.213 26.556,-16.421l-10.496,-66.584c0,0 4.751,-62.886 -72.419,-113.621c0,0 -41.743,-52.329 -56.54,-118.913c0,0 -42.284,-4.241 -52.84,-20.09l-21.052,-63.426l-17.443,3.699l0.361,1.533l9.624,-2.045Z" style="fill-rule:nonzero;"/><path d="M2325.57,2465.26l-7.669,7.669l0.27,3.94l9.865,-9.864l-2.466,-1.745Z" style="fill-rule:nonzero;"/></g><path d="M2369.57,2431.97c0,0 44.39,-30.646 80.328,-30.646" style="fill-opacity:0.1;fill-rule:nonzero;"/><path d="M2278.65,2320.97c0,0 25.382,-15.849 32.781,-28.54" style="fill-opacity:0.1;fill-rule:nonzero;"/><path d="M1957.31,2434.11c0,0 -12.692,15.849 -6.346,21.052c6.346,5.203 22.195,-18.044 22.195,-18.044l-15.849,-3.008Z" style="fill:#fdb797;fill-rule:nonzero;"/><path d="M1499.58,2453.63c-14.7,0 -26.796,12.096 -26.796,26.796c-0.049,0.881 -0.049,1.765 0,2.646c0,0.481 0.06,0.963 0.18,1.444l0,0.391c1.042,6.181 4.239,11.798 9.022,15.849l0.872,0.722c4.718,3.701 10.544,5.714 16.541,5.714c14.7,0 26.796,-12.097 26.796,-26.796c0,-14.7 -12.096,-26.797 -26.796,-26.797c-0.02,0 -0.04,0 -0.06,0l0.241,0.031Z" style="fill:url(#_Linear3);fill-rule:nonzero;"/><path d="M1484.21,2500.09c4.39,3.424 9.801,5.284 15.368,5.284c13.71,0 24.991,-11.282 24.991,-24.992c0,-13.71 -11.281,-24.992 -24.991,-24.992c-13.71,0 -24.992,11.282 -24.992,24.992c0,0.013 0,0.026 0,0.04c-0.045,0.821 -0.045,1.644 0,2.466c0,0.441 0.05,0.892 0.15,1.353l0,0.361c0.982,5.774 3.977,11.018 8.451,14.797l1.023,0.691Z" style="fill:#3ad29f;fill-rule:nonzero;"/><path d="M1484.21,2500.09l0.872,0c0.331,-3.488 10.045,-9.022 18.045,-13.503c8.39,-4.782 13.593,-7.849 14.435,-10.436c1.113,-3.308 -2.195,-7.188 -5.744,-9.353c-4.21,-2.616 -10.225,-3.849 -14.496,0.421c-6.926,5.96 -14.455,11.181 -22.465,15.579l0.15,1.353l0,0.361c0.662,-0.361 16.27,-9.023 23.428,-16.24c3.549,-3.519 8.691,-2.406 12.3,0c3.609,2.406 5.624,5.323 4.993,7.278c-0.632,1.954 -7.579,6.014 -13.654,9.443c-8.631,4.962 -17.563,10.015 -18.676,14.315l0.812,0.782Z" style="fill:#f0e4e4;fill-rule:nonzero;"/><path d="M2457.89,2750.67c0,0 -27.067,25.382 -43.156,34.886l14.616,13.744l46.585,-6.376l0,-25.383l-18.045,-16.871Z" style="fill:#f0e4e4;fill-rule:nonzero;"/><path d="M2282.35,2778.16l-9.504,-4.241l0,27.488l52.841,8.451l0,-24.3l-43.337,-7.398Z" style="fill:#f0e4e4;fill-rule:nonzero;"/><path d="M2265.42,2773.95c0,0 2.105,34.886 -49.683,54.976c0,0 -53.923,5.293 -16.901,31.698c37.021,26.405 149.048,-7.398 149.048,-7.398c0,0 -2.106,-33.834 -14.797,-61.321c0,0.09 -61.291,-4.091 -67.667,-17.955Z" style="fill-opacity:0.05;fill-rule:nonzero;"/><path d="M2265.42,2776.95c0,0 2.105,34.886 -49.683,54.975c0,0 -53.923,5.293 -16.901,31.699c37.021,26.405 149.048,-7.399 149.048,-7.399c0,0 -2.106,-33.833 -14.797,-61.321c0,0.09 -61.291,-4.09 -67.667,-17.954Z" style="fill:#f0e4e4;fill-rule:nonzero;"/><path d="M2419.76,2796.26c0,0 1.053,38.044 -32.781,45.442c-33.833,7.399 13.744,29.593 32.781,24.3c19.037,-5.293 97.26,-74.012 97.26,-74.012c0,0 -27.488,-42.104 -45.442,-42.104c0,0 -32.781,54.855 -51.818,46.374Z" style="fill-opacity:0.05;fill-rule:nonzero;"/><path d="M2419.76,2799.27c0,0 1.053,38.044 -32.781,45.442c-33.833,7.398 13.744,29.593 32.781,24.3c19.037,-5.293 97.26,-74.013 97.26,-74.013c0,0 -27.488,-42.104 -45.442,-42.104c0,0 -32.781,54.856 -51.818,46.375Z" style="fill:#f0e4e4;fill-rule:nonzero;"/><path d="M866.516,2602.55l150.311,305.284l150.341,305.253l-601.304,0l150.311,-305.253l150.341,-305.284Z" style="fill:none;fill-rule:nonzero;stroke:#f0e4e4;stroke-width:3.01px;"/><path d="M391.343,2602.55l150.311,305.284l150.341,305.253l-300.652,0l0,-610.537Z" style="fill:none;fill-rule:nonzero;stroke:#f0e4e4;stroke-width:3.01px;"/><path d="M659.004,2602.55l150.311,305.284l150.341,305.253l-300.652,0l-240.594,-21.052l16.601,-134.612l73.652,-149.589l150.341,-305.284Z" style="fill:none;fill-rule:nonzero;stroke:#f0e4e4;stroke-width:3.01px;"/><path d="M1010.87,2602.55l150.311,305.284l150.342,305.253l-601.305,0l150.311,-305.253l150.341,-305.284Z" style="fill:none;fill-rule:nonzero;stroke:#f0e4e4;stroke-width:3.01px;"/><path d="M1290.56,2602.55l150.311,305.284l150.341,305.253l-601.304,0l150.311,-305.253l150.341,-305.284Z" style="fill:none;fill-rule:nonzero;stroke:#f0e4e4;stroke-width:3.01px;"/><path d="M1591.31,2602.55l150.311,305.284l150.341,305.253l-601.304,0l150.311,-305.253l150.341,-305.284Z" style="fill:none;fill-rule:nonzero;stroke:#f0e4e4;stroke-width:3.01px;"/><path d="M1892.05,2602.55l150.311,305.284l150.341,305.253l-601.305,0l150.311,-305.253l150.342,-305.284Z" style="fill:none;fill-rule:nonzero;stroke:#f0e4e4;stroke-width:3.01px;"/><path d="M2198.8,2602.55l150.311,305.284l150.341,305.253l-601.304,0l150.311,-305.253l150.341,-305.284Z" style="fill:none;fill-rule:nonzero;stroke:#f0e4e4;stroke-width:3.01px;"/><path d="M2502.55,2602.55l150.311,305.284l150.342,305.253l-601.305,0l150.311,-305.253l150.341,-305.284Z" style="fill:none;fill-rule:nonzero;stroke:#f0e4e4;stroke-width:3.01px;"/><path d="M2785.25,2602.55l150.311,305.284l150.341,305.253l-601.304,0l150.311,-305.253l150.341,-305.284Z" style="fill:none;fill-rule:nonzero;stroke:#f0e4e4;stroke-width:3.01px;"/><path d="M3208.31,3213.09l-167.333,0l150.311,-305.253l5.985,-12.12l11.037,317.373Z" style="fill:none;fill-rule:nonzero;stroke:#f0e4e4;stroke-width:3.01px;"/><path d="M2965.7,2602.55l150.311,305.284l150.341,305.253l-601.304,0l150.311,-305.253l150.341,-305.284Z" style="fill:none;fill-rule:nonzero;stroke:#f0e4e4;stroke-width:3.01px;"/><path d="M3052.91,2602.55l150.311,305.284l33.142,67.246l0,238.007l-484.105,0l150.311,-305.253l150.341,-305.284Z" style="fill:none;fill-rule:nonzero;stroke:#f0e4e4;stroke-width:3.01px;"/><path d="M3152.16,2602.55l0,610.537l-300.652,0l150.311,-305.253l150.341,-305.284Z" style="fill:none;fill-rule:nonzero;stroke:#f0e4e4;stroke-width:3.01px;"/><path d="M1458.98,2602.55l150.311,305.284l150.341,305.253l-601.305,0l150.311,-305.253l150.342,-305.284Z" style="fill:none;fill-rule:nonzero;stroke:#f0e4e4;stroke-width:3.01px;"/><path d="M2051.44,2602.55l150.311,305.284l150.341,305.253l-601.304,0l150.311,-305.253l150.341,-305.284Z" style="fill:none;fill-rule:nonzero;stroke:#f0e4e4;stroke-width:3.01px;"/><path d="M2643.9,2602.55l150.311,305.284l150.341,305.253l-601.304,0l150.311,-305.253l150.341,-305.284Z" style="fill:none;fill-rule:nonzero;stroke:#f0e4e4;stroke-width:3.01px;"/><path d="M3236.37,2602.55l13.323,27.097l-19.338,279.69l6.015,303.75l-300.652,0l150.311,-305.253l150.341,-305.284Z" style="fill:none;fill-rule:nonzero;stroke:#f0e4e4;stroke-width:3.01px;"/><path d="M2664.95,3216.1l-150.341,-305.254l-150.311,-305.283l601.304,0l-150.341,305.283l-150.311,305.254Z" style="fill:none;fill-rule:nonzero;stroke:#f0e4e4;stroke-width:3.01px;"/><path d="M2048.43,3216.1l-150.342,-305.254l-150.311,-305.283l601.305,0l-150.341,305.283l-150.311,305.254Z" style="fill:none;fill-rule:nonzero;stroke:#f0e4e4;stroke-width:3.01px;"/><path d="M1431.91,3216.1l-150.341,-305.254l-150.311,-305.283l601.304,0l-150.341,305.283l-150.311,305.254Z" style="fill:none;fill-rule:nonzero;stroke:#f0e4e4;stroke-width:3.01px;"/><path d="M815.39,3216.1l-150.341,-305.254l-150.311,-305.283l601.304,0l-150.341,305.283l-150.311,305.254Z" style="fill:none;fill-rule:nonzero;stroke:#f0e4e4;stroke-width:3.01px;"/><rect x="472.544" y="2575.52" width="2736.76" height="54.134" style="fill:#f0e4e4;"/><rect x="472.544" y="3192.04" width="2736.76" height="54.134" style="fill:#f0e4e4;"/><rect x="385.328" y="2530.41" width="108.267" height="760.878" style="fill:#535461;"/><rect x="3155.16" y="2530.41" width="108.267" height="760.878" style="fill:#535461;"/></g><defs><linearGradient id="_Linear2" x1="0" y1="0" x2="1" y2="0" gradientUnits="userSpaceOnUse" gradientTransform="matrix(5.7087e-14,-932.301,932.301,5.7087e-14,2295.13,2882.24)"><stop offset="0" style="stop-color:#808080;stop-opacity:0.25"/><stop offset="0.54" style="stop-color:#808080;stop-opacity:0.12"/><stop offset="1" style="stop-color:#808080;stop-opacity:0.1"/></linearGradient><linearGradient id="_Linear3" x1="0" y1="0" x2="1" y2="0" gradientUnits="userSpaceOnUse" gradientTransform="matrix(3.27974e-15,-53.5622,53.5622,3.27974e-15,1499.58,2507.19)"><stop offset="0" style="stop-color:#808080;stop-opacity:0.25"/><stop offset="0.54" style="stop-color:#808080;stop-opacity:0.12"/><stop offset="1" style="stop-color:#808080;stop-opacity:0.1"/></linearGradient></defs></svg>