<?xml version="1.0" encoding="UTF-8" standalone="no"?><!DOCTYPE svg PUBLIC "-//W3C//DTD SVG 1.1//EN" "http://www.w3.org/Graphics/SVG/1.1/DTD/svg11.dtd"><svg width="100%" height="100%" viewBox="0 0 8000 4500" version="1.1" xmlns="http://www.w3.org/2000/svg" xmlns:xlink="http://www.w3.org/1999/xlink" xml:space="preserve" xmlns:serif="http://www.serif.com/" style="fill-rule:evenodd;clip-rule:evenodd;stroke-miterlimit:10;"><path d="M-74.017,1192.17c0,0 1387.82,-283.731 2313.03,-277.563c925.212,6.168 2490.67,407.093 4188.13,320.74c0,0 1189.64,43.176 1897.92,-357.749l-89.129,2183.5c0,0 -1356.98,641.48 -3750.19,283.731c-2393.22,-357.748 -2144.83,-635.312 -4533.72,-400.925c-2388.9,234.387 -26.029,-1751.74 -26.029,-1751.74Z" style="fill:#f4f9f2;"/><clipPath id="_clip1"><rect id="goalSVGillu" x="4524.08" y="1143.3" width="3072.67" height="2145.01"/></clipPath><g clip-path="url(#_clip1)"><path d="M4525.13,1329.07c9.988,84.871 80.039,152.076 96.659,235.9c2.083,10.99 3.357,22.118 3.812,33.294c2.39,48.141 -7.142,97.276 -2.228,145.498c9.156,90.429 64.117,161.097 133.899,222.341c52.786,46.208 114.057,86.859 170.414,126.193c143.484,100.23 278.054,226.772 336.989,391.575c39.281,109.895 42.288,229.322 71.125,342.412c28.836,113.091 94.51,228.812 205.506,264.871c119.132,38.717 250.4,-25.829 372.995,-0.322c131.563,27.387 224.865,151.727 354.683,186.846c164.937,44.624 329.31,-65.029 498.623,-87.878c81.301,-10.982 164.051,-1.665 245.781,-8.7c90.978,-7.912 179.08,-35.901 257.944,-81.944c26.85,-15.761 53.995,-35.12 66.48,-63.741c10.74,-24.729 9.102,-52.921 5.8,-79.69c-12.351,-99.343 -43.604,-207.332 5.557,-294.647c45.349,-80.549 155.245,-138.168 138.947,-229.108c-9.8,-54.746 -63.607,-88.926 -113.493,-113.439c-102.888,-50.558 -212.488,-90.134 -304.448,-158.413c-65.781,-48.92 -122.434,-117.171 -146.598,-193.934c-9.908,-30.69 -13.988,-62.965 -12.029,-95.155c3.383,-50.746 20.943,-107.721 -9.666,-148.344c-13.264,-17.613 -33.589,-28.434 -54.021,-36.704c-77.058,-31.145 -162.655,-32.944 -242.774,-55.068c-27.469,-7.499 -53.869,-18.471 -78.562,-32.649c-48.866,-28.3 -88.201,-69.997 -97.706,-124.421c-5.557,-31.897 -0.617,-66.721 -16.539,-94.913c-26.85,-47.793 -79.931,-67.769 -139.215,-74.266c-73.38,-8.055 -156.479,4.537 -212.112,10.74l-5.558,0.59c-71.446,7.438 -142.302,-8.377 -211.923,-32.219c-75.179,-25.534 -148.667,-60.278 -220.167,-84.979c-6.712,-2.327 -13.407,-4.556 -20.083,-6.686c-52.194,-16.632 -105.634,-29.067 -159.809,-37.186c-76.402,-11.501 -153.845,-14.49 -230.907,-8.914c-39.082,2.815 -77.97,7.872 -116.473,15.143c-11.313,2.148 -22.607,4.448 -33.884,6.9c-65.567,14.042 -130.785,31.199 -197.667,32.22l-14.445,0c-79.77,-1.37 -161.339,-21.641 -237.028,2.846c-34.421,11.196 -67.419,33.213 -81.274,66.613c-7.706,18.607 -8.941,39.362 -6.605,59.338Z" style="fill:#4fb35b;fill-rule:nonzero;"/><path d="M4625.6,1598.27l68.923,0c2.098,-36.353 25.755,-68.122 59.982,-80.549c-20.55,-11.314 -33.36,-32.99 -33.36,-56.449c0,-35.35 29.088,-64.439 64.439,-64.439c35.35,0 64.439,29.089 64.439,64.439c0,23.459 -12.811,45.135 -33.361,56.449c34.228,12.427 57.884,44.196 59.982,80.549l0.591,0c3.09,-35.32 26.489,-65.777 59.821,-77.864c-20.552,-11.314 -33.364,-32.991 -33.364,-56.451c0,-35.35 29.089,-64.439 64.439,-64.439c30.925,0 57.704,22.261 63.355,52.665c7.896,-6.444 16.817,-11.517 26.393,-15.009c-20.551,-11.314 -33.361,-32.99 -33.361,-56.449c0,-35.35 29.089,-64.439 64.439,-64.439c35.35,0 64.439,29.089 64.439,64.439c0,23.459 -12.81,45.135 -33.361,56.449c36.076,13.069 60.234,47.549 60.197,85.919l0,75.179l29.535,0l0,-59.069c-0.037,-38.37 24.121,-72.851 60.197,-85.919c-20.551,-11.314 -33.361,-32.99 -33.361,-56.449c0,-35.35 29.089,-64.439 64.439,-64.439c35.35,0 64.439,29.089 64.439,64.439c0,23.459 -12.81,45.135 -33.361,56.449c23.577,8.588 42.617,26.501 52.626,49.511c10.799,-15.35 26.062,-27.014 43.711,-33.401c-20.551,-11.314 -33.361,-32.99 -33.361,-56.449c0,-35.351 29.089,-64.439 64.439,-64.439c35.35,0 64.439,29.088 64.439,64.439c0,23.459 -12.81,45.135 -33.361,56.449c19.459,7.079 35.952,20.553 46.772,38.207l0,-11.358c-0.037,-38.369 24.121,-72.85 60.197,-85.918c-20.55,-11.314 -33.36,-32.99 -33.36,-56.449c0,-35.351 29.088,-64.439 64.439,-64.439c35.35,0 64.439,29.088 64.439,64.439c0,23.459 -12.811,45.135 -33.361,56.449c36.076,13.068 60.234,47.549 60.197,85.918l0,102.029l32.219,0c10.136,-22.452 28.919,-39.889 52.062,-48.329c-20.551,-11.314 -33.361,-32.991 -33.361,-56.45c0,-35.35 29.089,-64.439 64.439,-64.439c35.35,0 64.439,29.089 64.439,64.439c0,23.459 -12.81,45.136 -33.361,56.45c6.367,2.313 12.454,5.329 18.151,8.994c4.616,-33.576 27.565,-61.927 59.445,-73.433c-20.551,-11.314 -33.361,-32.991 -33.361,-56.45c0,-35.35 29.089,-64.439 64.439,-64.439c35.35,0 64.439,29.089 64.439,64.439c0,23.459 -12.81,45.136 -33.361,56.45c27.254,9.954 48.207,32.304 56.385,60.143c10.075,-11.369 22.83,-20.045 37.106,-25.239c-20.551,-11.314 -33.361,-32.99 -33.361,-56.449c0,-35.35 29.089,-64.439 64.439,-64.439c35.35,0 64.439,29.089 64.439,64.439c0,23.459 -12.81,45.135 -33.361,56.449c9.851,3.595 19.007,8.863 27.065,15.573c9.912,-23.485 29.196,-41.794 53.162,-50.477c-20.55,-11.314 -33.361,-32.991 -33.361,-56.45c0,-35.35 29.089,-64.439 64.439,-64.439c35.351,0 64.439,29.089 64.439,64.439c0,23.459 -12.81,45.136 -33.36,56.45c36.076,13.068 60.234,47.548 60.197,85.918l0,26.85l162.171,0c24.686,14.167 51.077,25.13 78.535,32.622c80.119,22.124 165.716,23.923 242.774,55.069c20.433,8.269 40.758,19.09 54.021,36.703c30.609,40.623 13.049,97.598 9.666,148.344c-1.978,32.167 2.074,64.423 11.948,95.101l-2166.2,0c-69.809,-61.109 -124.743,-131.912 -133.899,-222.341c-4.779,-48.195 4.618,-97.33 2.228,-145.498Z" style="fill-opacity:0.2;fill-rule:nonzero;"/><path d="M7192.66,1349.96l0,1041.74l-53.699,-34.905l0,-1006.83l-32.22,0l-13.424,971.928l-51.015,-37.589l34.905,-947.764" style="fill:none;fill-rule:nonzero;stroke:#e0e0e0;stroke-width:2.68px;"/><path d="M7259.81,1425.14l-217.482,12.082" style="fill:none;fill-rule:nonzero;stroke:#e0e0e0;stroke-width:2.68px;"/><path d="M7246.39,1478.84l-204.057,8.055" style="fill:none;fill-rule:nonzero;stroke:#e0e0e0;stroke-width:2.68px;"/><path d="M7246.39,1543.28l-204.057,5.37" style="fill:none;fill-rule:nonzero;stroke:#e0e0e0;stroke-width:2.68px;"/><path d="M7246.39,1602.35l-204.057,8.055" style="fill:none;fill-rule:nonzero;stroke:#e0e0e0;stroke-width:2.68px;"/><path d="M7246.39,1669.47l-212.112,0" style="fill:none;fill-rule:nonzero;stroke:#e0e0e0;stroke-width:2.68px;"/><path d="M7246.39,1736.6l-217.481,-8.055" style="fill:none;fill-rule:nonzero;stroke:#e0e0e0;stroke-width:2.68px;"/><path d="M7246.39,1798.35l-217.481,-10.74" style="fill:none;fill-rule:nonzero;stroke:#e0e0e0;stroke-width:2.68px;"/><path d="M7246.39,1865.48l-217.481,-16.11" style="fill:none;fill-rule:nonzero;stroke:#e0e0e0;stroke-width:2.68px;"/><path d="M7251.76,1924.54l-230.906,-21.48" style="fill:none;fill-rule:nonzero;stroke:#e0e0e0;stroke-width:2.68px;"/><path d="M7251.76,1991.67l-230.906,-34.904" style="fill:none;fill-rule:nonzero;stroke:#e0e0e0;stroke-width:2.68px;"/><path d="M7251.76,2069.53l-238.961,-42.96" style="fill:none;fill-rule:nonzero;stroke:#e0e0e0;stroke-width:2.68px;"/><path d="M7251.76,2158.14l-238.961,-69.809" style="fill:none;fill-rule:nonzero;stroke:#e0e0e0;stroke-width:2.68px;"/><path d="M7257.13,2249.42l-252.386,-99.343" style="fill:none;fill-rule:nonzero;stroke:#e0e0e0;stroke-width:2.68px;"/><path d="M7257.13,2332.66l-252.386,-123.508" style="fill:none;fill-rule:nonzero;stroke:#e0e0e0;stroke-width:2.68px;"/><path d="M6983.24,1347.28l-42.959,915.544l-56.384,0l34.904,-915.544l-61.754,0l-40.274,915.544l-61.754,0l34.904,-915.544l-75.178,0l-26.85,915.544l-67.124,0l29.535,-907.489l-69.809,0l-16.11,907.489l-61.754,0l18.795,-915.544l-61.754,0l-13.425,915.544l-59.069,0l13.424,-915.544l-69.808,0l0,915.544l-69.809,0l0,-915.544l-64.439,0l10.739,915.544l-56.384,0l-16.109,-915.544l-64.439,0l21.479,915.544l-56.384,0l-26.849,-915.544l-56.385,0l21.48,915.544l-51.014,0l-40.274,-915.544l-53.7,0l42.96,915.544l-53.699,0l-59.07,-915.544l-64.439,0l75.179,915.544l-51.014,0l-72.494,-915.544l-51.014,0l75.179,915.544l-56.384,0l-72.494,-926.284l-51.014,0l83.233,926.284l-53.699,0l-85.919,-926.284" style="fill:none;fill-rule:nonzero;stroke:#e0e0e0;stroke-width:2.68px;"/><path d="M5313.19,1349.96l80.549,928.969l-40.274,32.219l-61.754,-961.188l-42.96,0l42.96,996.093l-61.754,40.274l-24.138,-1049.79" style="fill:none;fill-rule:nonzero;stroke:#e0e0e0;stroke-width:2.68px;"/><path d="M5146.75,1454.68l247.016,0" style="fill:none;fill-rule:nonzero;stroke:#e0e0e0;stroke-width:2.68px;"/><path d="M5146.75,1521.8l247.016,0" style="fill:none;fill-rule:nonzero;stroke:#e0e0e0;stroke-width:2.68px;"/><path d="M5146.75,1596.98l247.016,-8.055" style="fill:none;fill-rule:nonzero;stroke:#e0e0e0;stroke-width:2.68px;"/><path d="M5146.75,1661.42l257.756,-13.425" style="fill:none;fill-rule:nonzero;stroke:#e0e0e0;stroke-width:2.68px;"/><path d="M5146.75,1733.91l257.756,-10.74" style="fill:none;fill-rule:nonzero;stroke:#e0e0e0;stroke-width:2.68px;"/><path d="M5146.75,1811.78l268.496,-13.425" style="fill:none;fill-rule:nonzero;stroke:#e0e0e0;stroke-width:2.68px;"/><path d="M5146.75,1886.95l268.496,-26.85" style="fill:none;fill-rule:nonzero;stroke:#e0e0e0;stroke-width:2.68px;"/><path d="M5146.75,1972.87l268.496,-64.439" style="fill:none;fill-rule:nonzero;stroke:#e0e0e0;stroke-width:2.68px;"/><path d="M5146.75,2048.05l279.235,-93.973" style="fill:none;fill-rule:nonzero;stroke:#e0e0e0;stroke-width:2.68px;"/><path d="M5146.75,2125.92l279.235,-107.398" style="fill:none;fill-rule:nonzero;stroke:#e0e0e0;stroke-width:2.68px;"/><path d="M5138.7,2201.1l277.974,-116.662" style="fill:none;fill-rule:nonzero;stroke:#e0e0e0;stroke-width:2.68px;"/><path d="M5138.7,2287.01l287.29,-144.987" style="fill:none;fill-rule:nonzero;stroke:#e0e0e0;stroke-width:2.68px;"/><path d="M5138.7,2364.88l295.345,-163.782" style="fill:none;fill-rule:nonzero;stroke:#e0e0e0;stroke-width:2.68px;"/><path d="M7042.33,1425.14l-1648.56,13.425" style="fill:none;fill-rule:nonzero;stroke:#e0e0e0;stroke-width:2.68px;"/><path d="M7040.99,1473.47l-1648.57,13.425" style="fill:none;fill-rule:nonzero;stroke:#e0e0e0;stroke-width:2.68px;"/><path d="M7039.65,1521.8l-1648.56,13.425" style="fill:none;fill-rule:nonzero;stroke:#e0e0e0;stroke-width:2.68px;"/><path d="M7038.31,1570.13l-1648.56,13.424" style="fill:none;fill-rule:nonzero;stroke:#e0e0e0;stroke-width:2.68px;"/><path d="M7036.96,1618.46l-1648.56,13.425" style="fill:none;fill-rule:nonzero;stroke:#e0e0e0;stroke-width:2.68px;"/><path d="M7035.62,1666.79l-1627.09,13.425" style="fill:none;fill-rule:nonzero;stroke:#e0e0e0;stroke-width:2.68px;"/><path d="M7034.28,1715.12l-1627.08,13.425" style="fill:none;fill-rule:nonzero;stroke:#e0e0e0;stroke-width:2.68px;"/><path d="M7032.94,1763.45l-1627.09,13.424" style="fill:none;fill-rule:nonzero;stroke:#e0e0e0;stroke-width:2.68px;"/><path d="M7031.59,1811.78l-1627.09,13.425" style="fill:none;fill-rule:nonzero;stroke:#e0e0e0;stroke-width:2.68px;"/><path d="M7030.25,1860.11l-1610.98,13.425" style="fill:none;fill-rule:nonzero;stroke:#e0e0e0;stroke-width:2.68px;"/><path d="M7028.91,1908.43l-1610.98,13.425" style="fill:none;fill-rule:nonzero;stroke:#e0e0e0;stroke-width:2.68px;"/><path d="M7027.57,1956.76l-1610.98,13.424" style="fill:none;fill-rule:nonzero;stroke:#e0e0e0;stroke-width:2.68px;"/><path d="M7026.22,2005.09l-1600.24,13.425" style="fill:none;fill-rule:nonzero;stroke:#e0e0e0;stroke-width:2.68px;"/><path d="M7024.88,2053.42l-1600.24,13.425" style="fill:none;fill-rule:nonzero;stroke:#e0e0e0;stroke-width:2.68px;"/><path d="M7023.54,2101.75l-1592.18,13.425" style="fill:none;fill-rule:nonzero;stroke:#e0e0e0;stroke-width:2.68px;"/><path d="M7022.19,2150.08l-1592.18,13.424" style="fill:none;fill-rule:nonzero;stroke:#e0e0e0;stroke-width:2.68px;"/><path d="M7020.85,2198.41l-1592.18,13.425" style="fill:none;fill-rule:nonzero;stroke:#e0e0e0;stroke-width:2.68px;"/><path d="M7257.1,2437.34l-244.331,-174.522l-1586.81,0l-279.209,174.522" style="fill:none;fill-rule:nonzero;stroke:#e0e0e0;stroke-width:8.05px;"/><path d="M7272.27,2248.51c0,0 6.202,-183.275 105.331,-286.78c41.868,-43.159 68.615,-98.764 76.199,-158.413c3.386,-28.338 4.168,-56.927 2.336,-85.408" style="fill:none;fill-rule:nonzero;stroke:#535461;stroke-width:5.37px;"/><path d="M7518.21,1652.32c-6.793,20.459 -63.499,67.5 -63.499,67.5c0,0 -17.372,-71.635 -10.579,-92.094c5.438,-15.67 20.295,-26.24 36.882,-26.24c21.416,0 39.039,17.623 39.039,39.039c0,3.993 -0.612,7.962 -1.816,11.768l-0.027,0.027Z" style="fill:#4fb35b;fill-rule:nonzero;"/><path d="M7541.87,1785.97c-16.808,13.425 -90,22.151 -90,22.151c0,0 24.353,-69.567 41.16,-83.046c7.026,-5.886 15.906,-9.115 25.072,-9.115c21.417,0 39.04,17.623 39.04,39.04c0,12.127 -5.651,23.587 -15.272,30.97Z" style="fill:#4fb35b;fill-rule:nonzero;"/><path d="M7474.96,1978.78c-21.319,3.142 -88.872,-26.312 -88.872,-26.312c0,0 56.142,-47.766 77.461,-51.015c1.598,-0.198 3.207,-0.298 4.818,-0.298c21.416,0 39.039,17.623 39.039,39.039c0,18.938 -13.78,35.281 -32.446,38.479l0,0.107Z" style="fill:#4fb35b;fill-rule:nonzero;"/><path d="M7391.48,2113.24c-20.486,6.712 -92.04,-10.928 -92.04,-10.928c0,0 47.255,-56.545 67.741,-63.284c4.14,-1.447 8.494,-2.186 12.879,-2.186c21.417,0 39.04,17.623 39.04,39.039c0,17.115 -11.254,32.326 -27.62,37.332l0,0.027Z" style="fill:#4fb35b;fill-rule:nonzero;"/><path d="M7372.74,1786.22c9.962,19.117 73.434,56.572 73.434,56.572c0,0 5.773,-73.46 -4.162,-92.604c-6.71,-12.901 -20.094,-21.025 -34.636,-21.025c-21.417,0 -39.041,17.623 -39.041,39.041c0,6.272 1.511,12.452 4.405,18.016Z" style="fill:#4fb35b;fill-rule:nonzero;"/><path d="M7277.13,1944.79c15.224,15.277 86.993,32.004 86.993,32.004c0,0 -16.459,-71.822 -31.683,-87.1c-7.285,-7.083 -17.054,-11.049 -27.215,-11.049c-21.416,0 -39.039,17.623 -39.039,39.039c0,10.108 3.926,19.831 10.944,27.106Z" style="fill:#4fb35b;fill-rule:nonzero;"/><path d="M7205.34,2111.61c12.405,17.613 80.334,46.235 80.334,46.235c0,0 -4.081,-73.595 -16.512,-91.289c-7.283,-10.539 -19.306,-16.845 -32.117,-16.845c-21.416,0 -39.039,17.623 -39.039,39.04c0,8.172 2.566,16.142 7.334,22.779l0,0.08Z" style="fill:#4fb35b;fill-rule:nonzero;"/><path d="M7312.55,2412.29c0,0 6.202,-183.276 105.33,-286.781c41.868,-43.158 68.615,-98.763 76.2,-158.412c3.385,-28.339 4.167,-56.928 2.335,-85.409" style="fill:none;fill-rule:nonzero;stroke:#535461;stroke-width:5.37px;"/><path d="M7558.49,1816.1c-6.793,20.459 -63.5,67.499 -63.5,67.499c0,0 -17.371,-71.634 -10.578,-92.094c5.438,-15.669 20.295,-26.239 36.881,-26.239c21.416,0 39.039,17.623 39.039,39.039c0,3.992 -0.612,7.961 -1.815,11.768l-0.027,0.027Z" style="fill:#4fb35b;fill-rule:nonzero;"/><path d="M7582.14,1949.76c-16.808,13.425 -90,22.151 -90,22.151c0,0 24.353,-69.568 41.161,-83.046c7.026,-5.887 15.906,-9.115 25.072,-9.115c21.416,0 39.039,17.623 39.039,39.039c0,12.128 -5.651,23.588 -15.272,30.971Z" style="fill:#4fb35b;fill-rule:nonzero;"/><path d="M7515.23,2142.56c-21.319,3.141 -88.872,-26.313 -88.872,-26.313c0,0 56.142,-47.765 77.461,-51.014c1.598,-0.199 3.208,-0.299 4.818,-0.299c21.417,0 39.04,17.623 39.04,39.04c0,18.938 -13.781,35.28 -32.447,38.478l0,0.108Z" style="fill:#4fb35b;fill-rule:nonzero;"/><path d="M7431.76,2277.03c-20.487,6.713 -92.041,-10.927 -92.041,-10.927c0,0 47.256,-56.546 67.742,-63.285c4.14,-1.447 8.494,-2.185 12.879,-2.185c21.416,0 39.039,17.623 39.039,39.039c0,17.114 -11.254,32.325 -27.619,37.331l0,0.027Z" style="fill:#4fb35b;fill-rule:nonzero;"/><path d="M7413.02,1950c9.961,19.117 73.433,56.572 73.433,56.572c0,0 5.773,-73.46 -4.161,-92.604c-6.711,-12.901 -20.095,-21.025 -34.636,-21.025c-21.418,0 -39.042,17.624 -39.042,39.041c0,6.272 1.512,12.452 4.406,18.016Z" style="fill:#4fb35b;fill-rule:nonzero;"/><path d="M7317.41,2108.57c15.224,15.277 86.993,32.005 86.993,32.005c0,0 -16.459,-71.823 -31.683,-87.1c-7.284,-7.083 -17.054,-11.05 -27.214,-11.05c-21.417,0 -39.04,17.623 -39.04,39.039c0,10.108 3.926,19.832 10.944,27.106Z" style="fill:#4fb35b;fill-rule:nonzero;"/><path d="M7245.61,2275.39c12.404,17.613 80.333,46.234 80.333,46.234c0,0 -4.081,-73.594 -16.512,-91.288c-7.283,-10.539 -19.306,-16.845 -32.117,-16.845c-21.416,0 -39.039,17.623 -39.039,39.039c0,8.172 2.566,16.142 7.335,22.779l0,0.081Z" style="fill:#4fb35b;fill-rule:nonzero;"/><path d="M5107.79,1432.74c1.316,-51.954 37.294,-97.598 88.067,-108.741l1.45,-0.295c2.05,-0.409 4.138,-0.607 6.229,-0.591l2009.42,0c30.153,-0.245 58.308,15.4 74.025,41.134l0.51,0.886c2.953,5.182 4.543,11.031 4.618,16.996l18.66,1055.19l-64.439,0l-21.479,-1031.02c0,0 0,-29.534 -26.85,-32.219c-4.108,-0.403 -53.941,-0.698 -135.349,-0.886l-47.201,892.319l-26.85,0l52.491,-892.346c-357.905,-0.698 -1233.93,0.188 -1640.51,0.671l52.142,886.305l-26.85,0l-46.826,-886.278l-154.761,0.188c-23.064,0.015 -44.456,12.304 -56.088,32.22l-21.48,1031.02l-64.439,0l25.507,-1004.55Z" style="fill:#e0e0e0;fill-rule:nonzero;"/><path d="M5081.94,2459.07c0,0 -8.699,-141.927 60.224,-229.135c29.14,-36.385 45.699,-81.264 47.174,-127.858c0.521,-22.143 -0.989,-44.289 -4.51,-66.157" style="fill:none;fill-rule:nonzero;stroke:#535461;stroke-width:5.37px;"/><path d="M5227.94,1980.77c-3.732,16.298 -44.06,56.787 -44.06,56.787c0,0 -18.795,-54.021 -14.955,-70.292c3.123,-13.741 15.443,-23.576 29.534,-23.576c16.615,0 30.288,13.673 30.288,30.288c0,2.259 -0.253,4.51 -0.753,6.712l-0.054,0.081Z" style="fill:#4fb35b;fill-rule:nonzero;"/><path d="M5256.03,2082.2c-12.002,11.652 -67.849,23.735 -67.849,23.735c0,0 13.666,-55.498 25.668,-67.124c5.647,-5.486 13.217,-8.558 21.09,-8.558c16.604,0 30.266,13.662 30.266,30.266c0,8.175 -3.312,16.011 -9.175,21.708l0,-0.027Z" style="fill:#4fb35b;fill-rule:nonzero;"/><path d="M5218.57,2235.95c-16.109,4.001 -70.533,-13.773 -70.533,-13.773c0,0 39.764,-41 56.035,-45c2.372,-0.585 4.806,-0.881 7.249,-0.881c16.604,0 30.268,13.663 30.268,30.268c0,13.877 -9.545,26.063 -23.019,29.386Z" style="fill:#4fb35b;fill-rule:nonzero;"/><path d="M5164.02,2345.89c-15.331,6.685 -71.849,-1.665 -71.849,-1.665c0,0 32.219,-47.148 47.631,-53.699c3.968,-1.827 8.285,-2.773 12.654,-2.773c16.6,0 30.26,13.659 30.26,30.259c0,12.241 -7.429,23.329 -18.75,27.985l0.054,-0.107Z" style="fill:#4fb35b;fill-rule:nonzero;"/><path d="M5125.51,2094.99c9.075,14.042 60.841,38.261 60.841,38.261c0,0 -0.94,-57.136 -10.042,-71.178c-5.573,-8.602 -15.15,-13.808 -25.4,-13.808c-16.603,0 -30.266,13.663 -30.266,30.266c0,5.841 1.691,11.558 4.867,16.459Z" style="fill:#4fb35b;fill-rule:nonzero;"/><path d="M5063.36,2224.27c12.861,10.74 69.514,18.311 69.514,18.311c0,0 -17.99,-54.236 -30.877,-64.922c-5.43,-4.501 -12.266,-6.966 -19.319,-6.966c-16.606,0 -30.271,13.665 -30.271,30.271c0,9.007 4.019,17.558 10.953,23.306Z" style="fill:#4fb35b;fill-rule:nonzero;"/><path d="M5020.21,2358.33c10.874,12.7 65.405,29.803 65.405,29.803c0,0 -8.565,-56.384 -19.466,-69.191c-5.748,-6.705 -14.152,-10.569 -22.983,-10.569c-16.609,0 -30.276,13.667 -30.276,30.276c0,7.227 2.588,14.221 7.293,19.708l0.027,-0.027Z" style="fill:#4fb35b;fill-rule:nonzero;"/><path d="M5227.94,1980.77c-3.732,16.298 -44.06,56.787 -44.06,56.787c0,0 -18.795,-54.021 -14.955,-70.292c3.123,-13.741 15.443,-23.576 29.534,-23.576c16.615,0 30.288,13.673 30.288,30.288c0,2.259 -0.253,4.51 -0.753,6.712l-0.054,0.081Z" style="fill:#fff;fill-opacity:0.5;fill-rule:nonzero;"/><path d="M5256.03,2082.2c-12.002,11.652 -67.849,23.735 -67.849,23.735c0,0 13.666,-55.498 25.668,-67.124c5.647,-5.486 13.217,-8.558 21.09,-8.558c16.604,0 30.266,13.662 30.266,30.266c0,8.175 -3.312,16.011 -9.175,21.708l0,-0.027Z" style="fill:#fff;fill-opacity:0.5;fill-rule:nonzero;"/><path d="M5218.57,2235.95c-16.109,4.001 -70.533,-13.773 -70.533,-13.773c0,0 39.764,-41 56.035,-45c2.372,-0.585 4.806,-0.881 7.249,-0.881c16.604,0 30.268,13.663 30.268,30.268c0,13.877 -9.545,26.063 -23.019,29.386Z" style="fill:#fff;fill-opacity:0.5;fill-rule:nonzero;"/><path d="M5164.02,2345.89c-15.331,6.685 -71.849,-1.665 -71.849,-1.665c0,0 32.219,-47.148 47.631,-53.699c3.968,-1.827 8.285,-2.773 12.654,-2.773c16.6,0 30.26,13.659 30.26,30.259c0,12.241 -7.429,23.329 -18.75,27.985l0.054,-0.107Z" style="fill:#fff;fill-opacity:0.5;fill-rule:nonzero;"/><path d="M5125.51,2094.99c9.075,14.042 60.841,38.261 60.841,38.261c0,0 -0.94,-57.136 -10.042,-71.178c-5.573,-8.602 -15.15,-13.808 -25.4,-13.808c-16.603,0 -30.266,13.663 -30.266,30.266c0,5.841 1.691,11.558 4.867,16.459Z" style="fill:#fff;fill-opacity:0.5;fill-rule:nonzero;"/><path d="M5063.36,2224.27c12.861,10.74 69.514,18.311 69.514,18.311c0,0 -17.99,-54.236 -30.877,-64.922c-5.43,-4.501 -12.266,-6.966 -19.319,-6.966c-16.606,0 -30.271,13.665 -30.271,30.271c0,9.007 4.019,17.558 10.953,23.306Z" style="fill:#fff;fill-opacity:0.5;fill-rule:nonzero;"/><path d="M5020.21,2358.33c10.874,12.7 65.405,29.803 65.405,29.803c0,0 -8.565,-56.384 -19.466,-69.191c-5.748,-6.705 -14.152,-10.569 -22.983,-10.569c-16.609,0 -30.276,13.667 -30.276,30.276c0,7.227 2.588,14.221 7.293,19.708l0.027,-0.027Z" style="fill:#fff;fill-opacity:0.5;fill-rule:nonzero;"/><g opacity="0.1"><path d="M5550.27,1913.35c-0.322,-0.403 -0.483,-0.672 -0.483,-0.672l0.483,0.672Z" style="fill:url(#_Linear2);fill-rule:nonzero;"/></g><path d="M5994.2,1950c-0.51,17.104 10.096,23.521 10.096,23.521l99.075,87.744c38.233,13.854 42.959,86.536 42.959,86.536c3.759,6.713 5.37,18.365 5.37,32.22c-0.457,42.959 -12.593,102.834 -12.593,102.834l0.349,0.564l-0.349,1.745l0.349,0.564l-0.349,1.745c1.898,3.065 3.95,6.031 6.149,8.887c-10.74,21.99 -30.743,57.378 -39.388,64.922c-11.948,10.391 -35.845,87.691 -35.845,87.691l0.779,-0.188l-0.779,2.497l0.511,0c-5.8,11.196 -11.707,25.641 -12.969,39.899c-0.852,9.348 -2.789,18.566 -5.772,27.467c-3.523,10.341 -3.832,21.511 -0.886,32.031c2.365,8.417 3.929,17.038 4.671,25.749c1.499,16.783 5.621,33.227 12.217,48.732c10.928,25.964 25.4,61.432 26.151,68.574c0.403,3.866 1.343,9.558 2.417,15.438l-0.618,0.161l-25.695,58.264c0,0 -7.169,16.11 -21.479,16.11c-0.022,0 -0.044,0 -0.065,0c-5.406,0 -9.854,4.448 -9.854,9.853c0,0.377 0.022,0.754 0.065,1.128c-0.189,1.62 0.023,3.261 0.617,4.78l0,0.161c0,0.268 0.242,0.537 0.349,0.805l0.242,0.457c0.134,0.268 0.295,0.51 0.483,0.778l0.323,0.457l0.59,0.725l0.403,0.456l0.698,0.698l0.483,0.457l0.806,0.644l0.591,0.43l0.939,0.59l0.698,0.43l1.047,0.537l0.806,0.403l1.154,0.483l0.913,0.376l1.289,0.429l1.02,0.323l1.45,0.349l1.155,0.268l1.584,0.269l1.262,0.214l1.745,0.188l1.369,0.161l11.036,0c1.378,0 2.801,-0.116 4.269,-0.349c46.611,-4.618 81.247,-40.274 81.247,-40.274l0,-2.014l0.161,-0.188c0,0 -3.008,-46.423 -20.057,-56.921c-1.698,-8.625 -2.597,-17.388 -2.685,-26.178c0,-32.22 9.559,-64.627 -16.727,-117.709c0,0 -1.208,-13.854 8.377,-34.609c5.619,-11.123 11.84,-21.933 18.633,-32.38l1.182,-0.135l-1.906,2.524c0,0 31.064,-2.309 33.454,-23.09c0.226,-1.729 0.631,-3.43 1.208,-5.075c7.196,-20.889 41.939,-50.504 57.351,-52.625c16.727,-2.309 50.182,36.918 63.338,64.627c0.752,1.584 1.531,3.087 2.309,4.457c12.834,22.58 28.756,17.479 28.756,17.479c-0.564,-0.671 -1.047,-1.316 -1.557,-1.987c0.526,-0.068 1.047,-0.176 1.557,-0.322c-1.408,-1.707 -2.708,-3.501 -3.893,-5.37c11.948,12.941 24.648,24.863 30.179,31.817c11.948,15.009 5.987,25.372 5.987,29.991c0,20.808 -27.494,81.918 -20.325,115.453c3.544,16.566 -0.51,35.951 -5.531,51.309l-1.047,0c-20.325,7.679 -22.688,35.227 -22.527,49.081l0,10.284c0,0 57.351,25.373 106.351,32.219c1.719,0.242 3.357,0.43 4.941,0.564l1.45,0l3.087,0.188l5.531,0c0.94,0 1.826,0 2.685,-0.215l0.86,0c1.109,-0.143 2.156,-0.322 3.141,-0.537l0.644,-0.161c0.752,-0.188 1.45,-0.349 2.121,-0.564l0.886,-0.295l1.585,-0.618l0.805,-0.375c0.483,-0.242 0.94,-0.484 1.396,-0.752l0.725,-0.564c0.543,-0.352 1.063,-0.738 1.557,-1.155c0.489,-0.422 0.947,-0.88 1.37,-1.369l0.349,-0.43c0.268,-0.326 0.519,-0.667 0.752,-1.02l0.322,-0.537c0.197,-0.34 0.367,-0.68 0.51,-1.02l0.242,-0.537c0.146,-0.387 0.272,-0.781 0.376,-1.181l0,-0.403c0.116,-0.522 0.196,-1.051 0.241,-1.584c0.045,-0.533 0,-0.188 0,-0.296c0.022,-0.429 0.022,-0.859 0,-1.288l0,-0.511c0.698,-7.088 -4.913,-14.149 -10.525,-13.075c-11.948,2.309 -27.494,-11.546 -27.494,-11.546l-32.676,-53.377c-0.51,-12.485 0.886,-28.353 8.78,-41.241c15.546,-25.372 34.663,-79.609 34.663,-79.609c0,0 -2.39,-33.454 7.169,-49.618c9.558,-16.163 0,-41.536 0,-41.536l-29.24,-56.384l5.37,0l-1.047,-2.309l1.047,0c0,0 -35.844,-79.609 -50.181,-88.845c-10.23,-6.579 -24.675,-43.631 -32.22,-64.439c3.007,-1.585 4.672,-2.685 4.672,-2.685c0,0 8.377,-100.391 8.377,-163.783c0,-63.392 42.959,-88.845 42.959,-88.845l99.532,-58.908c26.285,-10.391 29.883,-36.918 29.883,-36.918l-0.295,-0.752c0.215,-0.993 0.295,-1.557 0.295,-1.557l-0.295,-0.752c0.215,-0.994 0.295,-1.557 0.295,-1.557l-47.792,-122.3c0,0.376 -0.295,0.698 -0.43,1.047c-3.383,-21.077 -13.827,-54.075 -46.181,-56.384c-47.792,-3.464 -64.439,20.781 -54.961,23.09c9.478,2.31 50.182,18.473 50.182,18.473l16.11,25.964c-1.047,-0.35 -1.638,-0.591 -1.638,-0.591c0.912,0.352 1.717,0.935 2.336,1.691l1.074,1.719c-2.095,-0.591 -3.383,-1.101 -3.383,-1.101c0.293,0.122 0.572,0.275 0.832,0.456c0.235,0.126 0.459,0.27 0.671,0.43c0.218,0.194 0.424,0.4 0.618,0.617c0.217,0.214 0.423,0.438 0.617,0.672c0.215,0.268 0.403,0.564 0.618,0.859l0.322,0.483c-1.236,-0.332 -2.455,-0.726 -3.651,-1.181c12.511,4.027 17.747,79.931 18.794,99.343l-61.888,27.575c0,0 -62.13,0 -88.416,15.009c-23.064,13.156 -34.179,2.336 -36.542,-0.51c1.611,2.058 3.034,4.045 4.269,5.96l-0.671,-0.456l-0.618,-0.43l-0.51,-0.403l-0.752,-0.644c-5.432,-10.17 -9.014,-21.226 -10.578,-32.649c5.927,-14.136 5.615,-30.139 -0.86,-44.033c1.009,0.711 2.112,1.281 3.276,1.691c-2.686,-5.028 -4.501,-10.475 -5.37,-16.11c-0.591,-6.309 1.208,-13.022 -1.477,-18.794c-0.283,-0.585 -0.606,-1.15 -0.966,-1.692c0,-0.188 0,-0.403 -0.215,-0.617c-2.685,-5.854 -9.263,-9.076 -13.425,-14.177c-2.685,-3.437 -4.215,-7.625 -6.793,-11.169c-6.686,-8.547 -18.24,-11.761 -28.38,-7.894c-3.92,1.584 -7.571,4.242 -11.814,4.323c-2.195,-0.107 -4.368,-0.486 -6.47,-1.128c-13.149,-2.731 -26.858,-0.163 -38.127,7.142c-10.987,7.255 -19.672,17.505 -25.023,29.534c-2.896,5.91 -4.784,12.263 -5.585,18.795c-0.314,6.847 -0.206,13.706 0.322,20.54c0.242,11.25 -1.423,23.064 3.383,33.294c0.295,0.644 0.671,1.208 0.993,1.825c0,0.161 0,0.323 0.188,0.484c4.565,9.746 14.123,16.109 23.279,22.258l11.841,7.813l1.342,0.886c-3.39,-0.339 -6.801,-0.411 -10.203,-0.215c-17.935,1.155 -53.699,-16.109 -53.699,-16.109l-37.321,-33.777l18.204,-74.696l-0.698,0.51l0.698,-2.819l-0.698,0.51l0.698,-2.819c-0.349,0.269 -0.671,0.51 -1.02,0.752l18.929,-30.77c0,0 40.623,-16.109 50.182,-18.472c9.558,-2.363 -7.169,-26.528 -54.961,-23.091c-35.173,2.551 -44.463,41.322 -46.907,61.754c-2.067,-2.282 -3.275,-3.947 -3.275,-3.947l-33.508,79.26c-3.499,7.445 -5.332,15.564 -5.37,23.789c0.053,0.779 0.053,1.557 0.08,2.255Zm270.805,40.275l0.967,1.45l-0.967,-1.45Zm-95.772,0.322c2.662,-0.886 5.043,-2.461 6.9,-4.564c3.001,1.142 6.09,2.04 9.236,2.685c-0.853,2.932 -2.052,5.753 -3.571,8.403c-0.456,-1.798 -0.671,-2.899 -0.671,-2.899c-3.895,-1.434 -7.866,-2.653 -11.894,-3.652l0,0.027Zm-20.218,502.356c2.685,-4.323 5.37,-8.538 8.055,-12.512c-2.309,4.242 -5.37,8.86 -8.055,12.512Z" style="fill:url(#_Linear3);fill-rule:nonzero;"/><path d="M6393.03,2444.92l34.233,68.466c0,0 9.129,25.105 0,41.08c-9.129,15.976 -6.847,49.081 -6.847,49.081c0,0 -18.257,53.699 -33.105,78.75c-14.848,25.051 -5.719,61.754 -5.719,61.754l-59.338,6.847c0,0 22.823,-44.517 16.11,-77.623c-6.712,-33.105 19.412,-93.543 19.412,-114.137c0,-4.565 5.719,-14.848 -5.719,-29.669c-11.437,-14.821 -54.773,-52.491 -53.699,-74.185l94.672,-10.364Z" style="fill:#f7bbc3;fill-rule:nonzero;"/><path d="M6090.6,2428.94c0,0 -21.909,30.34 -24.46,59.875c-0.767,9.221 -2.569,18.326 -5.37,27.145c-3.37,10.25 -3.669,21.265 -0.859,31.682c2.26,8.34 3.752,16.869 4.457,25.481c1.408,16.607 5.337,32.904 11.653,48.329c10.444,25.695 24.164,60.76 24.97,67.822c1.155,11.411 6.847,38.797 6.847,38.797l45.644,17.131c0,0 -13.693,-33.106 -13.693,-65.057c0,-31.951 9.128,-63.902 -16.11,-116.42c0,0 -1.155,-13.693 8.055,-34.233c9.209,-20.54 44.516,-74.185 44.516,-74.185l-85.65,-26.367Z" style="fill:#f7bbc3;fill-rule:nonzero;"/><path d="M6164.38,2469.64c3.759,4.081 -15.6,30.072 -15.6,30.072c0,0 29.669,-2.282 31.951,-22.822c0.215,-1.709 0.602,-3.391 1.155,-5.021c6.873,-20.648 40.059,-49.94 54.773,-52.035c16.11,-2.282 47.926,36.516 60.492,63.902c0.725,1.584 1.45,3.034 2.202,4.404c12.27,22.338 27.467,17.291 27.467,17.291c-8.055,-9.935 -9.72,-17.802 -7.196,-24.165c9.988,-24.621 84.791,-23.896 84.791,-23.896c0,0 -34.233,-78.75 -47.926,-87.879c-13.694,-9.129 -35.388,-77.622 -35.388,-77.622c0,0 -163.219,-18.258 -164.346,-10.283c-1.128,7.974 -33.106,70.775 -44.517,81.032c-11.411,10.256 -34.206,86.778 -34.206,86.778c38.797,-11.411 81.595,16.539 86.16,19.976l0.188,0.268Z" style="fill-opacity:0.1;fill-rule:nonzero;"/><path d="M6164.38,2467.36c3.759,4.081 -15.6,30.072 -15.6,30.072c0,0 29.669,-2.283 31.951,-22.823c0.215,-1.708 0.602,-3.39 1.155,-5.02c6.873,-20.648 40.059,-49.941 54.773,-52.035c16.11,-2.282 47.926,36.515 60.492,63.902c0.725,1.584 1.45,3.034 2.202,4.403c12.27,22.339 27.467,17.292 27.467,17.292c-8.055,-9.935 -9.72,-17.802 -7.196,-24.165c9.988,-24.621 84.791,-23.896 84.791,-23.896c0,0 -34.233,-78.75 -47.926,-87.879c-13.694,-9.129 -35.388,-77.622 -35.388,-77.622c0,0 -163.219,-18.258 -164.346,-10.283c-1.128,7.974 -33.106,70.775 -44.517,81.032c-11.411,10.256 -34.233,86.751 -34.233,86.751c38.797,-11.411 81.596,16.539 86.16,19.976l0.215,0.295Z" style="fill:#565171;fill-rule:nonzero;"/><path d="M6378.77,2722.84l31.387,53.081c0,0 14.848,13.694 26.259,11.411c11.411,-2.282 22.822,31.952 -23.977,25.105c-46.799,-6.847 -101.572,-31.951 -101.572,-31.951c0,0 -5.128,-46.235 21.104,-56.384l46.799,-1.262Z" style="fill-opacity:0.1;fill-rule:nonzero;"/><path d="M6102.57,2704.47l-24.54,57.646c0,0 -6.847,16.109 -20.54,16.109c-13.694,0 -18.258,28.542 26.259,23.977c44.516,-4.564 77.622,-39.952 77.622,-39.952c0,0 -3.437,-54.773 -23.977,-58.21c-11.519,-2.19 -23.362,-2.044 -34.824,0.43Z" style="fill-opacity:0.1;fill-rule:nonzero;"/><path d="M6378.77,2725.12l31.387,53.082c0,0 14.848,13.693 26.259,11.411c11.411,-2.283 22.822,31.951 -23.977,25.104c-46.799,-6.847 -101.572,-31.951 -101.572,-31.951c0,0 -5.128,-46.235 21.104,-56.384l46.799,-1.262Z" style="fill:#b77983;fill-rule:nonzero;"/><path d="M6102.57,2706.86l-24.54,57.646c0,0 -6.847,16.11 -20.54,16.11c-13.694,0 -18.258,28.541 26.259,23.977c44.516,-4.565 77.622,-39.952 77.622,-39.952c0,0 -3.437,-54.774 -23.977,-58.21c-11.519,-2.19 -23.362,-2.044 -34.824,0.429Z" style="fill:#b77983;fill-rule:nonzero;"/><g opacity="0.1"><path d="M6162.44,2279.44c-1.155,8.055 -33.106,70.775 -44.517,81.032c-10.471,9.424 -30.582,74.695 -33.804,85.274c-2.067,0.403 -4.108,0.859 -6.148,1.45c0,0 22.822,-76.468 34.233,-86.751c11.411,-10.283 43.362,-73.058 44.517,-81.032c0.215,-1.584 6.9,-2.148 17.398,-1.987c-7.088,0.134 -11.465,0.725 -11.679,2.014Z" style="fill-rule:nonzero;"/><path d="M6242.38,2417.53c16.11,-2.282 47.926,36.516 60.492,63.902c0.725,1.584 1.45,3.034 2.202,4.404c7.088,12.887 15.116,16.646 20.674,17.532c-3.679,0.672 -16.11,1.235 -26.393,-17.532c-0.752,-1.37 -1.477,-2.82 -2.202,-4.404c-11.518,-25.131 -39.335,-59.821 -56.196,-63.633l1.423,-0.269Z" style="fill-rule:nonzero;"/><path d="M6164.38,2467.36l-0.188,-0.188c-3.678,-2.685 -32.22,-21.48 -63.499,-22.634c33.427,-1.155 65.298,19.707 69.218,22.634l0.188,0.188c3.302,3.598 -11.25,24.165 -14.821,28.998c-2.133,0.484 -4.294,0.834 -6.471,1.047c-2.177,0.212 19.332,-25.964 15.573,-30.045Z" style="fill-rule:nonzero;"/></g><path d="M6458.09,1849.15c0,0 0,-69.621 -45.644,-73.057c-45.644,-3.437 -61.754,20.54 -52.491,22.822c9.263,2.282 47.927,18.258 47.927,18.258l25.104,42.234l25.104,-10.257Z" style="fill:#f7bbc3;fill-rule:nonzero;"/><path d="M6044.92,1865.13c0,0 0,-69.621 45.644,-73.058c45.645,-3.437 61.754,20.54 52.491,22.822c-9.263,2.283 -47.926,18.258 -47.926,18.258l-25.105,42.234l-25.104,-10.256Z" style="fill:#f7bbc3;fill-rule:nonzero;"/><path d="M6251.51,1937.03c0,0 -3.437,45.644 25.104,71.903c28.541,26.259 -66.184,59.338 -66.184,59.338l-42.235,-50.209c0,0 34.234,-20.54 16.11,-55.928l67.205,-25.104Z" style="fill:#f7bbc3;fill-rule:nonzero;"/><path d="M6260.63,1990.67c0,0 10.283,16.109 35.387,1.154c25.105,-14.955 84.469,-14.982 84.469,-14.982l59.338,-27.387c0,0 -4.565,-98.162 -18.258,-102.726c0,0 27.387,11.411 35.388,-11.411l45.644,120.984c0,0 -3.437,26.259 -28.541,36.515l-94.725,58.21c0,0 -41.08,25.105 -41.08,87.879c0,62.774 -8.055,162.064 -8.055,162.064c0,0 -132.395,79.905 -186.041,-13.693c0,0 21.695,-110.701 6.847,-138.114c0,0 -4.565,-71.904 -41.08,-85.597l-94.672,-86.724c0,0 -18.257,-11.411 -4.564,-44.517l31.951,-78.749c0,0 19.412,27.386 35.388,13.693l-18.258,77.622l36.515,34.233c0,0 34.234,17.13 51.364,16.11c17.13,-1.02 36.515,6.847 36.515,6.847c0,0 8.055,45.644 44.517,41.079c0,0 69.621,-3.409 31.951,-52.49Z" style="fill-opacity:0.1;fill-rule:nonzero;"/><path d="M6260.63,1986.11c0,0 10.283,16.11 35.387,1.155c25.105,-14.956 84.469,-14.848 84.469,-14.848l59.338,-27.387c0,0 -4.565,-98.162 -18.258,-102.726c0,0 27.387,11.411 35.388,-11.411l45.644,120.984c0,0 -3.437,26.259 -28.541,36.515l-94.725,58.264c0,0 -41.08,25.104 -41.08,87.879c0,62.774 -8.055,162.064 -8.055,162.064c0,0 -132.395,79.904 -186.041,-13.694c0,0 21.695,-110.7 6.847,-138.114c0,0 -4.565,-71.903 -41.08,-85.596l-94.725,-86.751c0,0 -18.258,-11.411 -4.565,-44.517l31.951,-78.75c0,0 19.412,27.387 35.388,13.694l-18.258,77.622l36.516,34.233c0,0 34.233,17.13 51.363,16.11c17.13,-1.021 36.515,6.846 36.515,6.846c0,0 8.055,45.645 44.517,41.08c0.054,-0.161 69.675,-3.571 32.005,-52.652Z" style="fill-opacity:0.1;fill-rule:nonzero;"/><path d="M6260.69,1988.47l0.457,0.617l-0.457,-0.617Z" style="fill:#d39999;fill-rule:nonzero;"/><path d="M6015.26,1974.7l94.726,86.751c36.515,13.693 41.079,85.597 41.079,85.597c14.848,27.386 -6.846,138.114 -6.846,138.114c53.699,93.597 186.041,13.693 186.041,13.693c0,0 0.268,-3.276 0.698,-9.048c0.376,-5.048 0.886,-12.029 1.45,-20.325c0.751,-10.74 1.611,-23.709 2.416,-37.778c1.799,-30.743 3.437,-66.56 3.437,-94.913c0,-62.774 41.08,-87.879 41.08,-87.879l71.07,-43.657l23.682,-14.553c25.104,-10.283 28.541,-36.515 28.541,-36.515l-45.644,-120.984c-7.465,21.318 -31.871,12.753 -35.039,11.545c13.425,6.068 17.909,102.592 17.909,102.592l-59.338,27.387c0,0 -59.338,0 -84.469,14.848c-21.479,12.619 -31.978,2.953 -34.663,-0.242c36.086,48.329 -32.676,51.578 -32.676,51.578c-36.515,4.565 -44.516,-41.08 -44.516,-41.08c0,0 -19.412,-8.055 -36.516,-6.846c-17.103,1.208 -51.363,-16.11 -51.363,-16.11l-36.515,-34.233l18.257,-77.623c-16.109,13.694 -35.387,-13.693 -35.387,-13.693l-31.951,78.75c-13.72,33.213 4.537,44.624 4.537,44.624Z" style="fill:#b45181;fill-rule:nonzero;"/><path d="M6251.51,1941.59c-0.337,7.179 0.031,14.374 1.101,21.48c-10.217,25.445 -37.721,39.805 -64.439,33.643c2.59,-10.132 1.135,-20.885 -4.055,-29.964l67.393,-25.159Z" style="fill-opacity:0.1;fill-rule:nonzero;"/><circle cx="6200.73" cy="1937.62" r="55.928" style="fill:#f7bbc3;"/><path d="M6201.62,1905.8c0.484,5.665 0.886,11.706 -1.718,16.754c-1.45,2.538 -3.258,4.853 -5.37,6.874l-11.706,12.055c-3.691,3.243 -6.554,7.322 -8.351,11.894c-3.383,11.277 6.605,22.474 6.283,34.261c-3.667,5.749 -10.766,8.372 -17.291,6.39c-2.583,-0.989 -5.014,-2.336 -7.223,-4.001l-11.464,-7.813c-8.726,-5.961 -17.855,-12.405 -22.232,-22.017c-4.591,-10.122 -3.034,-21.828 -3.249,-32.944c-0.5,-6.763 -0.599,-13.55 -0.295,-20.325c0.766,-6.462 2.579,-12.756 5.37,-18.634c5.056,-11.756 13.343,-21.84 23.896,-29.078c10.668,-7.199 23.822,-9.75 36.408,-7.061c2.003,0.629 4.078,0.999 6.176,1.1c4.054,0 7.544,-2.685 11.276,-4.269c9.729,-3.8 20.881,-0.584 27.092,7.814c2.47,3.49 3.893,7.652 6.47,11.035c3.84,5.047 10.096,8.243 12.7,14.015c2.605,5.773 0.859,12.378 1.423,18.607c0.803,5.568 2.518,10.965 5.075,15.975c-6.337,-2.201 -9.424,-9.128 -13.425,-14.445c-6.408,-7.977 -15.956,-12.815 -26.178,-13.263c-3.491,-0.161 -9.962,-0.43 -12.727,2.228c-3.517,3.41 -1.289,10.713 -0.94,14.848Z" style="fill-opacity:0.1;fill-rule:nonzero;"/><path d="M6200.49,1903.52c0.483,5.665 0.886,11.706 -1.719,16.754c-1.449,2.538 -3.258,4.853 -5.37,6.873l-11.867,12.11c-3.681,3.22 -6.543,7.269 -8.35,11.813c-3.384,11.277 6.605,22.473 6.282,34.26c-3.667,5.75 -10.766,8.373 -17.291,6.391c-2.583,-0.989 -5.014,-2.336 -7.222,-4.001l-11.304,-7.706c-8.726,-5.96 -17.855,-12.404 -22.231,-22.016c-4.592,-10.123 -3.034,-21.829 -3.249,-32.945c-0.501,-6.763 -0.6,-13.55 -0.296,-20.325c0.766,-6.462 2.58,-12.756 5.37,-18.634c5.056,-11.755 13.343,-21.84 23.896,-29.078c10.669,-7.199 23.822,-9.75 36.408,-7.061c2.003,0.629 4.079,0.999 6.176,1.101c4.054,0 7.545,-2.685 11.277,-4.269c9.728,-3.8 20.88,-0.584 27.091,7.813c2.47,3.49 3.893,7.652 6.471,11.035c3.839,5.048 10.095,8.243 12.7,14.016c2.604,5.772 0.859,12.377 1.423,18.606c0.802,5.568 2.517,10.965 5.074,15.976c-6.336,-2.202 -9.424,-9.129 -13.425,-14.445c-6.407,-7.978 -15.955,-12.816 -26.178,-13.264c-3.49,-0.161 -9.961,-0.43 -12.727,2.229c-3.544,3.329 -1.396,10.605 -0.939,14.767Z" style="fill:#74585e;fill-rule:nonzero;"/><g opacity="0.1"><path d="M6261.12,1989.04c-0.322,-0.403 -0.483,-0.645 -0.483,-0.645l0.483,0.645Z" style="fill-rule:nonzero;"/><path d="M6067.85,1868.94c3.753,0.076 7.397,-1.289 10.176,-3.813l-1.101,4.618c-3.039,0.61 -6.191,0.331 -9.075,-0.805Z" style="fill-rule:nonzero;"/><path d="M6270.19,1994.94c28.595,43.899 -35.79,47.094 -35.79,47.094c-4.906,0.677 -9.9,0.32 -14.66,-1.047c2.97,0.35 5.971,0.35 8.941,0c2.97,-0.351 69.003,-3.41 32.434,-51.874c2.382,2.797 5.541,4.825 9.075,5.827Z" style="fill-rule:nonzero;"/><path d="M6153.37,1994.11c-4.629,0.117 -9.25,-0.435 -13.721,-1.638c2.659,0.462 5.36,0.634 8.055,0.511c7.109,-0.301 14.224,0.413 21.131,2.121c-5.1,-0.927 -10.289,-1.261 -15.465,-0.994Z" style="fill-rule:nonzero;"/><path d="M6010.69,1930.18l31.951,-78.749c1.284,1.749 2.664,3.425 4.135,5.02l-30.367,74.75c-13.693,33.105 4.564,44.516 4.564,44.516l94.726,86.751c36.515,13.694 41.079,85.597 41.079,85.597c14.848,27.386 -6.846,138.114 -6.846,138.114c14.391,25.104 34.448,37.589 56.115,42.745c-23.815,-4.055 -46.154,-16.593 -61.754,-43.899c0,0 21.695,-110.701 6.847,-138.115c0,0 -4.564,-71.903 -41.08,-85.596l-94.806,-86.617c0,0 -18.257,-11.411 -4.564,-44.517Z" style="fill-rule:nonzero;"/><path d="M6421.57,1844.59c2.341,0.902 4.758,1.594 7.223,2.067c12.511,10.982 16.727,101.787 16.727,101.787l-59.338,27.387c0,0 -59.337,0 -84.469,14.848c-12.297,7.276 -21.023,7.142 -26.849,5.128c5.37,0.322 12.27,-1.101 21.023,-6.256c25.104,-14.848 84.469,-14.848 84.469,-14.848l59.337,-27.387c0,0 -4.43,-98.162 -18.123,-102.726Z" style="fill-rule:nonzero;"/><path d="M6431.53,1847.11c8.673,1.127 20.594,-0.134 25.427,-13.935l2.685,7.115c-7.491,10.632 -21.185,8.672 -28.112,6.82Z" style="fill-rule:nonzero;"/></g><path d="M6334.82,2231.68c1.799,-30.742 3.437,-66.56 3.437,-94.913c0,-62.774 41.08,-87.879 41.08,-87.879l71.07,-43.657c-41.348,10.74 -96.363,29.239 -101.303,51.014c-8.055,35.388 -22.822,38.798 -17.13,99.344c2.36,25.291 3.31,50.694 2.846,76.091Z" style="fill-opacity:0.1;fill-rule:nonzero;"/><path d="M6323.97,2318.8c0,0 -10.284,31.951 18.257,52.491" style="fill-opacity:0.1;fill-rule:nonzero;"/><path d="M6164.19,2318.8c0,0 -3.437,23.977 -17.13,33.106" style="fill-opacity:0.1;fill-rule:nonzero;"/><path d="M6310.87,2778.2c0,0 54.773,25.104 101.572,31.951c23.735,3.463 32.488,-3.625 33.857,-11.143c1.558,8.78 -5.369,19.896 -33.857,15.707c-46.799,-6.847 -101.572,-31.951 -101.572,-31.951c-0.35,-3.793 -0.475,-7.603 -0.376,-11.411c0.081,4.162 0.376,6.847 0.376,6.847Z" style="fill-opacity:0.1;fill-rule:nonzero;"/><path d="M6082.59,2802.15c44.517,-4.564 77.622,-39.952 77.622,-39.952c0,0 -1.691,-27.01 -9.8,-44.275c9.102,17.05 10.955,46.558 10.955,46.558c0,0 -33.106,35.387 -77.622,39.952c-22.742,2.336 -32.676,-3.974 -35.12,-10.74c3.732,5.826 13.828,10.525 33.965,8.457Z" style="fill-opacity:0.1;fill-rule:nonzero;"/><path d="M6136.13,1631.86c0,0.013 0,0.026 0,0.039c0,55.234 45.451,100.686 100.686,100.686c55.235,0 100.686,-45.452 100.686,-100.686c0,-55.235 -45.451,-100.686 -100.686,-100.686c-31.201,0 -60.694,14.503 -79.743,39.215c-13.568,17.601 -20.934,39.208 -20.943,61.432Z" style="fill:url(#_Linear4);fill-rule:nonzero;"/><path d="M6139.84,1631.86c0,0.046 0,0.092 0,0.138c0,53.217 43.791,97.008 97.008,97.008c53.217,0 97.007,-43.791 97.007,-97.008c0,-53.216 -43.79,-97.007 -97.007,-97.007c-30.07,0 -58.491,13.981 -76.844,37.8c-13.044,16.926 -20.135,37.699 -20.164,59.069Z" style="fill:#e0e0e0;fill-rule:nonzero;"/><path d="M6182.47,1584.2l0,37.643" style="fill:none;fill-rule:nonzero;stroke:#535461;stroke-width:2.68px;"/><path d="M6254.38,1618.49l-39.281,25.936" style="fill:none;fill-rule:nonzero;stroke:#535461;stroke-width:2.68px;"/><path d="M6215.1,1560.81l45.993,19.224" style="fill:none;fill-rule:nonzero;stroke:#535461;stroke-width:2.68px;"/><path d="M6292.02,1625.17l-2.524,58.532" style="fill:none;fill-rule:nonzero;stroke:#535461;stroke-width:2.68px;"/><path d="M6261.09,1701.26l-51.847,-25.91" style="fill:none;fill-rule:nonzero;stroke:#535461;stroke-width:2.68px;"/><path d="M6182.47,1679.54l0,32.676" style="fill:none;fill-rule:nonzero;stroke:#535461;stroke-width:2.68px;"/><path d="M6163.25,1654.44l-22.607,-10.015" style="fill:none;fill-rule:nonzero;stroke:#535461;stroke-width:2.68px;"/><path d="M6289.5,1576.68l-1.718,-27.36" style="fill:none;fill-rule:nonzero;stroke:#535461;stroke-width:2.68px;"/><path d="M6304.56,1608.47l28.03,8.001" style="fill:none;fill-rule:nonzero;stroke:#535461;stroke-width:2.68px;"/><path d="M6312.08,1608.47l-21.721,-37.643l-35.952,5.853l0,41.805l38.449,20.083l19.224,-30.098Z" style="fill:#4fb35b;fill-rule:nonzero;"/><path d="M6160,1572.68l22.5,11.519c7.518,-10.042 38.449,-21.748 38.449,-21.748l-3.222,-25.696c-22.945,4.606 -43.461,17.374 -57.727,35.925Z" style="fill:#4fb35b;fill-rule:nonzero;"/><path d="M6220.95,1640.23l-39.308,-18.392l-21.748,30.931l22.58,35.951l38.476,-5.853l0,-42.637Z" style="fill:#4fb35b;fill-rule:nonzero;"/><path d="M6254.38,1696.24l0,30.904c25.424,-4.678 47.951,-19.331 62.532,-40.677l-27.413,-11.25l-35.119,21.023Z" style="fill:#4fb35b;fill-rule:nonzero;"/><path d="M4815.4,2344.98c0.001,46.337 38.131,84.466 84.469,84.466c46.338,0 84.469,-38.13 84.469,-84.468c0,-46.339 -38.131,-84.469 -84.469,-84.469c-26.197,0 -50.957,12.187 -66.936,32.946c-11.369,14.767 -17.535,32.889 -17.533,51.525Z" style="fill:url(#_Linear5);fill-rule:nonzero;"/><path d="M4818.52,2344.98c0.01,44.622 36.732,81.334 81.354,81.334c44.63,0 81.354,-36.724 81.354,-81.354c0,-44.63 -36.724,-81.354 -81.354,-81.354c-25.23,0 -49.076,11.736 -64.466,31.729c-10.953,14.228 -16.893,31.689 -16.888,49.645Z" style="fill:#e0e0e0;fill-rule:nonzero;"/><path d="M4854.28,2305l0,31.575" style="fill:none;fill-rule:nonzero;stroke:#535461;stroke-width:2.68px;"/><path d="M4914.58,2333.76l-32.971,21.749" style="fill:none;fill-rule:nonzero;stroke:#535461;stroke-width:2.68px;"/><path d="M4881.61,2285.38l38.583,16.136" style="fill:none;fill-rule:nonzero;stroke:#535461;stroke-width:2.68px;"/><path d="M4946.13,2339.37l-2.095,49.108" style="fill:none;fill-rule:nonzero;stroke:#535461;stroke-width:2.68px;"/><path d="M4920.19,2403.19l-43.496,-21.749" style="fill:none;fill-rule:nonzero;stroke:#535461;stroke-width:2.68px;"/><path d="M4854.28,2384.96l0,27.413" style="fill:none;fill-rule:nonzero;stroke:#535461;stroke-width:2.68px;"/><path d="M4838.14,2363.91l-18.956,-8.404" style="fill:none;fill-rule:nonzero;stroke:#535461;stroke-width:2.68px;"/><path d="M4944.04,2298.69l-1.449,-22.93" style="fill:none;fill-rule:nonzero;stroke:#535461;stroke-width:2.68px;"/><path d="M4956.66,2325.36l23.52,6.712" style="fill:none;fill-rule:nonzero;stroke:#535461;stroke-width:2.68px;"/><path d="M4962.97,2325.36l-18.23,-31.549l-30.153,4.887l0,35.065l32.247,16.835l16.136,-25.238Z" style="fill:#4fb35b;fill-rule:nonzero;"/><path d="M4835.4,2295.34l18.795,9.666c6.309,-8.404 32.219,-18.231 32.219,-18.231l-2.685,-21.48c-19.2,3.86 -36.371,14.535 -48.329,30.045Z" style="fill:#4fb35b;fill-rule:nonzero;"/><path d="M4886.53,2351.99l-32.945,-15.411l-18.257,25.936l18.955,30.152l32.247,-4.913l0,-35.764Z" style="fill:#4fb35b;fill-rule:nonzero;"/><path d="M4914.58,2398.98l0,26.017c21.322,-3.926 40.213,-16.22 52.438,-34.125l-22.984,-9.425l-29.454,17.533Z" style="fill:#4fb35b;fill-rule:nonzero;"/><path d="M4753.38,2446.5c0.001,46.337 38.131,84.467 84.468,84.467c46.339,0 84.469,-38.131 84.469,-84.469c0,-46.338 -38.13,-84.469 -84.469,-84.469c-26.197,0 -50.957,12.187 -66.936,32.947c-11.368,14.766 -17.535,32.888 -17.532,51.524Z" style="fill:url(#_Linear6);fill-rule:nonzero;"/><path d="M4756.49,2446.5c0.011,44.622 36.732,81.335 81.354,81.335c44.63,0 81.355,-36.725 81.355,-81.355c0,-44.629 -36.725,-81.354 -81.355,-81.354c-25.23,0 -49.076,11.737 -64.465,31.729c-10.953,14.228 -16.893,31.689 -16.889,49.645Z" style="fill:#e0e0e0;fill-rule:nonzero;"/><path d="M4792.26,2406.52l0,31.548" style="fill:none;fill-rule:nonzero;stroke:#535461;stroke-width:2.68px;"/><path d="M4852.56,2435.28l-32.945,21.748" style="fill:none;fill-rule:nonzero;stroke:#535461;stroke-width:2.68px;"/><path d="M4819.62,2386.89l38.556,16.136" style="fill:none;fill-rule:nonzero;stroke:#535461;stroke-width:2.68px;"/><path d="M4884.11,2440.89l-2.094,49.081" style="fill:none;fill-rule:nonzero;stroke:#535461;stroke-width:2.68px;"/><path d="M4858.17,2504.71l-43.469,-21.748" style="fill:none;fill-rule:nonzero;stroke:#535461;stroke-width:2.68px;"/><path d="M4792.26,2486.48l0,27.413" style="fill:none;fill-rule:nonzero;stroke:#535461;stroke-width:2.68px;"/><path d="M4776.12,2465.43l-18.956,-8.404" style="fill:none;fill-rule:nonzero;stroke:#535461;stroke-width:2.68px;"/><path d="M4882.02,2400.21l-1.45,-22.929" style="fill:none;fill-rule:nonzero;stroke:#535461;stroke-width:2.68px;"/><path d="M4894.63,2426.87l23.52,6.712" style="fill:none;fill-rule:nonzero;stroke:#535461;stroke-width:2.68px;"/><path d="M4900.94,2426.87l-18.231,-31.575l-30.152,4.913l0,35.066l32.273,16.834l16.11,-25.238Z" style="fill:#4fb35b;fill-rule:nonzero;"/><path d="M4773.38,2396.86l18.794,9.666c6.31,-8.404 32.22,-18.231 32.22,-18.231l-2.685,-21.48c-19.2,3.86 -36.372,14.535 -48.329,30.045Z" style="fill:#4fb35b;fill-rule:nonzero;"/><path d="M4824.5,2453.51l-32.944,-15.439l-18.231,25.964l18.929,30.152l32.246,-4.914l0,-35.763Z" style="fill:#4fb35b;fill-rule:nonzero;"/><path d="M4852.56,2500.41l0,26.017c21.313,-3.913 40.202,-16.187 52.437,-34.072l-22.983,-9.424l-29.454,17.479Z" style="fill:#4fb35b;fill-rule:nonzero;"/></g><defs><linearGradient id="_Linear2" x1="0" y1="0" x2="1" y2="0" gradientUnits="userSpaceOnUse" gradientTransform="matrix(4.11016e-17,-0.67124,0.67124,4.11016e-17,5549.93,1913.35)"><stop offset="0" style="stop-color:#808080;stop-opacity:0.25"/><stop offset="0.54" style="stop-color:#808080;stop-opacity:0.12"/><stop offset="1" style="stop-color:#808080;stop-opacity:0.1"/></linearGradient><linearGradient id="_Linear3" x1="0" y1="0" x2="1" y2="0" gradientUnits="userSpaceOnUse" gradientTransform="matrix(6.43716e-14,-1051.27,1051.27,6.43716e-14,5823.52,2821.4)"><stop offset="0" style="stop-color:#808080;stop-opacity:0.25"/><stop offset="0.54" style="stop-color:#808080;stop-opacity:0.12"/><stop offset="1" style="stop-color:#808080;stop-opacity:0.1"/></linearGradient><linearGradient id="_Linear4" x1="0" y1="0" x2="1" y2="0" gradientUnits="userSpaceOnUse" gradientTransform="matrix(1.23305e-14,-201.372,201.372,1.23305e-14,5841.06,1732.54)"><stop offset="0" style="stop-color:#808080;stop-opacity:0.25"/><stop offset="0.54" style="stop-color:#808080;stop-opacity:0.12"/><stop offset="1" style="stop-color:#808080;stop-opacity:0.1"/></linearGradient><linearGradient id="_Linear5" x1="0" y1="0" x2="1" y2="0" gradientUnits="userSpaceOnUse" gradientTransform="matrix(1.03412e-14,-168.884,168.884,1.03412e-14,7178.03,2429.42)"><stop offset="0" style="stop-color:#808080;stop-opacity:0.25"/><stop offset="0.54" style="stop-color:#808080;stop-opacity:0.12"/><stop offset="1" style="stop-color:#808080;stop-opacity:0.1"/></linearGradient><linearGradient id="_Linear6" x1="0" y1="0" x2="1" y2="0" gradientUnits="userSpaceOnUse" gradientTransform="matrix(1.03412e-14,-168.884,168.884,1.03412e-14,7240.03,2530.94)"><stop offset="0" style="stop-color:#808080;stop-opacity:0.25"/><stop offset="0.54" style="stop-color:#808080;stop-opacity:0.12"/><stop offset="1" style="stop-color:#808080;stop-opacity:0.1"/></linearGradient></defs></svg>